<?xml version="1.0" encoding="utf-8"?>
<!-- Generator: Adobe Illustrator 19.2.1, SVG Export Plug-In . SVG Version: 6.00 Build 0)  -->
<svg version="1.1" xmlns="http://www.w3.org/2000/svg" xmlns:xlink="http://www.w3.org/1999/xlink" x="0px" y="0px"
	 viewBox="0 0 2000 437.9781494" enable-background="new 0 0 2000 437.9781494" xml:space="preserve">
<g id="ref">
</g>
<g id="background">
</g>
<g id="glow_2_">
</g>
<g id="moon">
</g>
<g id="stars">
</g>
<g id="clouds">
</g>
<g id="city">
	<g>
		
			<linearGradient id="SVGID_1_" gradientUnits="userSpaceOnUse" x1="440.0482178" y1="214.2238007" x2="440.0482178" y2="589.848877">
			<stop  offset="0" style="stop-color:#0D0612"/>
			<stop  offset="1" style="stop-color:#34184E"/>
		</linearGradient>
		<polygon fill="url(#SVGID_1_)" points="764.6022339,112.4943848 758.5366211,309.4473267 714.3240356,310.0964355 709,18.4008179 
			583.1112671,18.4008179 601.0841675,244.9934082 548.3081055,249.6901855 539.6134644,85.4957275 410.6199341,98.9950562 
			434.0103149,287.2669678 387,288.5563354 387,180.4008179 275.6266479,182.395874 292.0616455,348.1057129 241,359.7037964 
			241,42.4008179 120,42.4008179 130.315979,203.0932617 90,210.5684814 90,275.4008179 63,275.2362671 63,99.4008179 
			0,106.4946899 0,425.4008179 477,425.4008179 476.9341431,425.0728149 496.2064819,425.1511841 496.1487427,425.4008179 
			673.4776001,432.4118042 673.3251953,433.9146729 837.6212769,437.9781494 880.0964355,118.4940796 		"/>
		
			<linearGradient id="SVGID_2_" gradientUnits="userSpaceOnUse" x1="949.3015137" y1="214.2238007" x2="949.3015137" y2="589.848877">
			<stop  offset="0" style="stop-color:#0D0612"/>
			<stop  offset="1" style="stop-color:#34184E"/>
		</linearGradient>
		<path fill="url(#SVGID_2_)" d="M1031.6882324,7.6766357L992,63.4008179h-43.1865845l0.1865845,34h-47.125061
			l-12.3897095,210.2359009L862,434.4008179h153.6647949l20.9345703-425.0197754
			C1036.7324219,6.678894,1033.2578125,5.4730225,1031.6882324,7.6766357z"/>
		
			<linearGradient id="SVGID_3_" gradientUnits="userSpaceOnUse" x1="1193.6750488" y1="214.2238007" x2="1193.6750488" y2="589.848877">
			<stop  offset="0" style="stop-color:#0D0612"/>
			<stop  offset="1" style="stop-color:#34184E"/>
		</linearGradient>
		<polygon fill="url(#SVGID_3_)" points="1211.7734375,240.4169312 1190,240.4008179 1190,208.6616821 1143.7215576,180.7503052 
			1158.901123,53.9963379 1079.1496582,47.9956055 1064.6806641,251.4041748 1088.0627441,314.4447021 1067.2612305,425.4008179 
			1314.6567383,428.27771 1322.6694336,0 1200.7172852,6.5330811 		"/>
		<linearGradient id="SVGID_4_" gradientUnits="userSpaceOnUse" x1="1661.5" y1="214.2238007" x2="1661.5" y2="589.848877">
			<stop  offset="0" style="stop-color:#0D0612"/>
			<stop  offset="1" style="stop-color:#34184E"/>
		</linearGradient>
		<path fill="url(#SVGID_4_)" d="M1947,112.4008179v195h-45.4545898l19.4545898-141h-80.9515381l-7.4996338,56.0704956
			L1771,222.4008179V39.9414062c0-4.6783447-5.3662109-7.3243408-9.0775146-4.4759521l-98.1120605,75.2997437
			c-1.4173584,1.0877686-2.2357178,2.7825317-2.2061768,4.5689697L1665,321.4008179h-45.4405518l10.4405518-163h-73v62.0661011
			l-44.7468262-14.1025391l-0.6844482,0.6065063l34.4927979-188.5700684L1402.0687256,6.5330811L1398,85.4008179h-27.4296875
			l-11.5703125,73h-22.9279785l-13.0705566,136.0847168L1323,428.4008179h148.0651855l0.5488281-3H2000V112.4943848
			L1947,112.4008179z"/>
	</g>
</g>
<g id="fog">
</g>
<g id="building">
</g>
<g id="building-spots">
</g>
<g id="glow">
</g>
<g id="green-glow">
</g>
<g id="scratches">
</g>
<g id="claws">
</g>
<g id="Layer_14">
</g>
<g id="Layer_15">
</g>
<g id="shadow">
</g>
<g id="Layer_2">
</g>
<g id="glow_1_">
</g>
<g id="hairs">
</g>
<g id="logo">
</g>
<g id="color">
</g>
<g id="badge">
</g>
</svg>
