<svg id="city" xmlns="http://www.w3.org/2000/svg" xmlns:xlink="http://www.w3.org/1999/xlink" viewBox="0 0 2000 437.98"><defs><style>.cls-1{fill:url(#linear-gradient);}.cls-2{fill:url(#linear-gradient-2);}.cls-3{fill:url(#linear-gradient-3);}.cls-4{fill:url(#linear-gradient-4);}</style><linearGradient id="linear-gradient" x1="440.05" y1="214.22" x2="440.05" y2="589.85" gradientUnits="userSpaceOnUse"><stop offset="0" stop-color="#0d0612"/><stop offset="1" stop-color="#34184e"/></linearGradient><linearGradient id="linear-gradient-2" x1="949.3" y1="214.22" x2="949.3" y2="589.85" xlink:href="#linear-gradient"/><linearGradient id="linear-gradient-3" x1="1193.68" y1="214.22" x2="1193.68" y2="589.85" xlink:href="#linear-gradient"/><linearGradient id="linear-gradient-4" x1="1661.5" y1="214.22" x2="1661.5" y2="589.85" xlink:href="#linear-gradient"/></defs><title>header</title><polygon class="cls-1" points="764.6 112.49 758.54 309.45 714.32 310.1 709 18.4 583.11 18.4 601.08 244.99 548.31 249.69 539.61 85.5 410.62 99 434.01 287.27 387 288.56 387 180.4 275.63 182.4 292.06 348.11 241 359.7 241 42.4 120 42.4 130.32 203.09 90 210.57 90 275.4 63 275.24 63 99.4 0 106.5 0 425.4 477 425.4 476.93 425.07 496.21 425.15 496.15 425.4 673.48 432.41 673.33 433.92 837.62 437.98 880.1 118.49 764.6 112.49"/><path class="cls-2" d="M1031.69,7.68L992,63.4H948.81l0.19,34H901.87L889.49,307.64,862,434.4h153.66l20.93-425A2.71,2.71,0,0,0,1031.69,7.68Z"/><polygon class="cls-3" points="1211.77 240.42 1190 240.4 1190 208.66 1143.72 180.75 1158.9 54 1079.15 48 1064.68 251.4 1088.06 314.44 1067.26 425.4 1314.66 428.28 1322.67 0 1200.72 6.53 1211.77 240.42"/><path class="cls-4" d="M1947,112.4v195h-45.45l19.45-141h-81l-7.5,56.07L1771,222.4V39.94a5.64,5.64,0,0,0-9.08-4.48l-98.11,75.3a5.64,5.64,0,0,0-2.21,4.57L1665,321.4h-45.44l10.44-163h-73v62.07l-44.75-14.1-0.68.61L1546.06,18.4l-144-11.87L1398,85.4h-27.43l-11.57,73h-22.93L1323,294.49V428.4h148.07l0.55-3H2000V112.49Z"/></svg>