<svg id="logo" xmlns="http://www.w3.org/2000/svg" viewBox="0 0 544.73 427.59"><defs><style>.cls-1{fill:#fff;}.cls-2,.cls-3{fill:#b5d825;}.cls-2{stroke:#3f4706;stroke-miterlimit:10;stroke-width:5.47px;}.cls-4{fill:#3f4706;}</style></defs><title>header</title><path class="cls-1" d="M99.27,186.59l1.5-.81,1.31-1.92c3.93-5.77,5.28-12.06,6.36-17.11,0.66-3.07,1.28-6,2.29-7.83,0.88-1.62,3-3.61,5.33-5.73,3.46-3.19,7.76-7.16,11-12.73,4.13-6.83,3.66-13.41,3.34-17.78,0-.68-0.12-1.63-0.12-2.22a31.48,31.48,0,0,1,2.3-2.28,38.66,38.66,0,0,0,8.09-9.67c3.46-6,5.67-13.74,8.23-22.73a182.9,182.9,0,0,1,7.23-21.87,218,218,0,0,1,11-21.27c4.83-8.51,9-15.86,10.2-22.09,0.64-3.35.42-9.31-7.36-13.3C166.76,1,162,0,159.32,0A12,12,0,0,0,156,.48c-16.71,4-24.29,9-33.16,17.14-0.75.69-1.71,1.49-2.72,2.34-5.78,4.82-14.5,12.1-20.46,27.52-3.88,10-5.54,18.86-7,26.66-1,5.51-1.93,10.27-3.35,13.6-4.11,9.6-8.59,15.29-12.92,20.79a87.43,87.43,0,0,0-7.95,11.3c-0.69-3.76-1.32-8.23-1.81-13.47-0.4-4.32.4-10,1.25-16,1-7.1,2.14-15.15,1.86-23.94C69.06,41.18,62.25,30,58.59,23.95c-6.54-10.76-17.21-10.81-32-10.89-4,0-8.49,0-13.66-.24L4.21,12.5,3.08,21.14c-2.9,22.11-1.69,30,.13,41.91,0.47,3.09,1,6.59,1.52,10.78a88.38,88.38,0,0,1,.09,11.81,190.29,190.29,0,0,0,1.87,37.8l0,0.17c2.11,11.52,5.62,20.16,8.44,27.1,1.7,4.18,3.17,7.79,3.55,10.28,1.06,7,.38,11.6-0.41,16.94a79.5,79.5,0,0,0-.77,22.34l0,0.24c0.16,1.14.39,2.46,0.65,4,1.23,7.13,3.08,17.9,1,29.58C18.3,238.77,16,244,13.65,249.47,11,255.69,8.17,262.11,6.85,269c-1.46,7.46-.89,14.57-0.39,20.86,0.34,4.3.67,8.37,0.2,11.44a150.82,150.82,0,0,1-3.61,16C0.9,325.45-.81,331.89.4,337.53l1.07,5,4.77,1.89a37,37,0,0,0,7,2c1.55,1.37,3.07,3.86,2.69,9.14-0.54,7.61-3.17,12.21-6.51,18C5.86,379.88,1.76,387,.93,397.9,0,410,10.21,424.71,28.34,427.28a31.18,31.18,0,0,0,4.38.31c15,0,26-10.1,29.56-27l0.44-2.13-0.52-2.11c-1.72-7-4.94-13.48-8-19.75-4.3-8.67-7.16-14.82-6.95-20a16.88,16.88,0,0,0,10.61-1,17.23,17.23,0,0,0,9.94-12.16l0.89-.87c2.22-2.15,5.58-5.4,6.32-10.45l0-.14c0.34-2.67,0-5.8-.48-10.15-0.76-7-1.9-17.48-.38-29.23,0.62-4.78,2.63-10.28,4.75-16.11,2.45-6.7,5-13.63,6.26-21.37,1.16-7.23,1-14.41.9-21.36-0.13-6.69-.24-13,0.86-18.19C90.54,198.48,97.58,188.43,99.27,186.59Z"/><path class="cls-1" d="M543.34,316.17h0l-2.8-14.7c-3.43-15.14-8.18-28.72-12.79-41.91-3.77-10.78-7.67-21.93-10.71-33.64-3.58-13.83-5.51-29.47-7.73-47.58-1.52-12.36-3.24-26.37-5.76-41.76-1.81-10.24-5.25-18.17-8.28-25.16-1.79-4.14-3.34-7.71-3.91-10.47-1.34-6.5-2.25-11.72-3-15.94-2.3-13.13-3.56-20.37-12.75-25.55A10.37,10.37,0,0,0,470.3,58h-0.13a10.46,10.46,0,0,0-3.64-4.62,17,17,0,0,0-10.29-3.34,27.88,27.88,0,0,0-8.69,1.66c-0.45.14-.88,0.29-1.23,0.38-6.39.75-11.18,3.43-13.87,7.76a15,15,0,0,0-1,13.34c1,2.71,2.3,6,3.84,9.83,4.73,11.72,11.22,27.77,14.31,44.28,1.18,6.28,2.24,12.4,3.17,18.15a62.79,62.79,0,0,1-4.25-19.14l0-.65-0.08-.79A9.5,9.5,0,0,0,445,118.4a9.21,9.21,0,0,0-3.66-6.54l-0.16-.12-0.6-.42-0.18-.11A45.89,45.89,0,0,1,425.51,95c-1.42-2.58-2.23-6.56-3.09-10.77-1-5-2.16-10.66-4.84-16a12.56,12.56,0,0,0-8.2-6.15,14,14,0,0,0-.91-5.91,10.24,10.24,0,0,0-5.11-8,10.62,10.62,0,0,0-2.31-9l-0.1-.12-0.47-.5c-3.48-3.43-8.53-4.84-14.92-6.62a80.78,80.78,0,0,1-13.1-4.48c-2.15-1-4.44-2.24-6.87-3.5-7.7-4-15.66-8.16-22.26-9l-10.83-1.39,0,10.92c0,16.18,1.7,32.61,3.69,48.8a18.32,18.32,0,0,0-.94-2.89c-2.78-6.45-7.77-10-11.78-12.78-2.71-1.91-5.06-3.56-6.56-5.89l-3.15-4.89-4.07.38a16.34,16.34,0,0,0-9.79-3.64c-0.44,0-.88,0-1.35.07a15.81,15.81,0,0,0-8.88,4.16,10.82,10.82,0,0,0-5.58-1.56,11,11,0,0,0-3.68.65,10.76,10.76,0,0,0-1.42.62,11,11,0,0,0-1.57-.35,11.39,11.39,0,0,0-1.6-.11,10.82,10.82,0,0,0-8.48,4.1l-1.58-.58c-3.18-1.18-6.78-2.52-11-2.52-0.64,0-1.29,0-1.92.09A26.46,26.46,0,0,0,242,52a10,10,0,0,1-3.34,1.5l-7.18.72-1.28,7.1c-1.44,8-3.25,16.47-5.17,25.49-3.48,16.3-7.3,34.22-9.77,53.25-0.24-3.59-.39-7.11-0.39-10.54,0-20.23,1.38-38.32,2.39-51.53,1.26-16.54,1.52-20-.67-23.74l-1.21-2.07-2-1.26a10.33,10.33,0,0,0-5.51-1.53c-2.31,0-4.52.66-7.61,1.57s-7.33,2.17-10.33,2.2c-2.09,0-6.12-1.45-8.54-2.32-3.39-1.22-6.33-2.28-9.31-2.32l-6.24-.1-2.61,5.67c-2,4.3-1.93,8.81-1.89,12.8a29.16,29.16,0,0,1-.19,4.92,28.85,28.85,0,0,1-2.21,2.29c-2.82,2.73-6.68,6.47-8,12-5.45,20.69-9.13,41.45-12.7,61.55-3,17-5.87,33.11-9.64,48.48-4.92,20.08-10.72,38.72-16.33,56.76-5.68,18.27-11,35.52-14.49,51.38-2.44,11.72,4.85,17.72,8.83,21l1,0.85c0.23,0.32.65,1,.94,1.4,2.24,3.46,6,9.25,14,11.87l0.22,0.07a17.11,17.11,0,0,0,4.77.67,25,25,0,0,0,10.29-2.63l0.6-.26a44,44,0,0,0,4.86.35,14.08,14.08,0,0,0,9.35-3,13.59,13.59,0,0,0,4.78-9.76,37.57,37.57,0,0,0-.8-8.9c-0.69-4.15-1.48-8.85-.58-12.72,0.64-2.76,2.58-5.61,4.62-8.63a64.35,64.35,0,0,0,3.51-5.58c0.37-.21.71-0.42,1-0.62q0.36,0.52.81,1.3c0.2,0.35.37,0.64,0.5,0.83L168,293.1a55.91,55.91,0,0,1,5.16,17.41c0.9,7.85.17,17.07-.27,22.58s-0.67,8.42,2.18,11.69l2.67,3,3,0.17a9.6,9.6,0,0,0,1.57.13A11.59,11.59,0,0,0,187,347a12.5,12.5,0,0,0,8,5.41,16.69,16.69,0,0,0,3.09.29c5.36,0,9.54-2.57,12.32-4.27,0.39-.24,1-0.61,1.39-0.83,0.7-.1,1.42-0.17,2.15-0.25,3.3-.36,9.7-1.05,13.77-5.16l0.08,0.06v9.61a16.88,16.88,0,0,0,33.75,0V339.64c7.75-2.63,10.59-12.64,12.2-21.26a183.67,183.67,0,0,0,2.48-34.18c-0.14-12.14-2.15-24.28-3.77-34-0.91-5.48-1.92-11.62-1.94-14.67,0.35-.37.83-0.82,1.16-1.14l0.09-.08a40.89,40.89,0,0,0,5.07,4.41c0.53,0.41,1.38,1.07,2,1.59,0.77,4.31,1.2,9,1.66,13.88,0.88,9.37,1.78,19.07,5.15,28.64,2.74,7.81,6.84,14.71,10.81,21.38,3.5,5.9,6.82,11.48,8.64,16.8a16.82,16.82,0,0,1-.5,2.94c-0.66,2.94-2,9,3,13.45a10.65,10.65,0,0,0,7.11,2.7c3.47,0,6.36-1.61,8.28-2.69a18.36,18.36,0,0,1,2.76-1.37c0.64,0.08,2.06.44,2.85,0.65a34.33,34.33,0,0,0,8.58,1.38h0a17.08,17.08,0,0,0,6.75-1.33,24.92,24.92,0,0,0,5.06-2.9l0.19,0.94,8.2-.38a44.9,44.9,0,0,0,7.89-1.16c1,6,.53,14.48-3.78,25.77-6.44,16.9-6.67,29.88-.66,38.6a22.14,22.14,0,0,0,17.5,9.4h0.88l0.82-.15a23.49,23.49,0,0,0,15.75-11.95c4.87-9.15,4-21.37-2.5-36.32-4.77-10.92-5.42-21.27-1.94-30.81h5.51c6.85,0,12.93-.18,18-2.43l6.14-2.74-0.49-6.71c-0.62-8.42-2.47-19.32-4.63-32-2.68-15.78-5.72-33.67-7.22-51.66-1.22-14.72-1.26-30.18-1.27-43.91C410,191,412.79,194,414.19,197s1.79,7.57,2.08,11.5c0.27,3.69.53,7.18,1.68,10.12,2.55,6.86,7.25,13.36,12.23,20.24,3.89,5.37,7.91,10.93,10.86,16.67,3.26,6.32,5.53,13.47,7.74,20.4,2.25,7.09,4.38,13.79,7.51,19.42,4.61,8.25,10.73,12.82,15.2,16.17a31.14,31.14,0,0,1,3.62,2.95l1,1.18C482.39,323,488.3,330,500.8,330c0.8,0,1.63,0,2.54-.09a15.85,15.85,0,0,0,4.41-1v0c-1.93,3.49-4.32,7.84-4.81,14.43-0.8,10.8,8.69,18.86,18,20.13a20.26,20.26,0,0,0,2.71.18c7.68,0,16.82-4.66,19.44-17.73l0.41-2.05-0.48-2a56,56,0,0,0-4.33-11.12c-0.9-1.89-1.74-3.7-2.31-5.22l8.41-.62ZM336.1,87.39a59.27,59.27,0,0,0,.75-9q0.64,5,1.29,10C340,103,342,118.1,343,132.72c1.61,24,.7,48.41-0.18,72.09-0.42,11.38-.86,23.15-1,34.56-0.19,11.06,1.73,20.37,3.44,28.6,0.25,1.22.5,2.42,0.73,3.6-0.47-1.69-1-3.37-1.53-5-3-8.82-7.23-16.84-11.34-24.6-3.71-7-7.21-13.62-9.62-20.45a22.46,22.46,0,0,1,.78-4.41c0.71-3,1.6-6.77,1-10.68-0.36-2.31-.79-4.62-1.17-6.65-0.16-.82-0.41-2.17-0.63-3.48,4.67-4,9.43-11.26,11.95-22.53,1.22-5.48.38-10.81-.43-16-0.55-3.5-1.12-7.11-.8-9.86,0.37-3,1.68-6.08,3.07-9.39,2-4.7,4-9.56,4.07-15.26,0.06-5.89-1.88-11-3.59-15.58-1.27-3.36-2.37-6.27-2.47-8.8A63.71,63.71,0,0,1,336.1,87.39ZM284.84,145.2a16,16,0,0,1,1.33,3.06,28.73,28.73,0,0,1-2.89,2.41,31.48,31.48,0,0,0-5.57,5.09c-0.52.65-1,1.32-1.48,2a26.84,26.84,0,0,0-2.15-1.79l-0.19-.15c0.23-2.18.86-5.23,1.47-8.19,1.29-6.3,2.75-13.43,2.75-21A120,120,0,0,0,276.76,111c-0.21-1.59-.43-3.32-0.62-5h0.34a11.63,11.63,0,0,0,2-.18,43.66,43.66,0,0,0,1.29,6.19c1.06,3.6,3.31,6.47,5.13,8.78a24.76,24.76,0,0,1,2.38,3.38c-0.26.45-.7,1.11-0.92,1.44a20.7,20.7,0,0,0-4,10.1C282,139.65,283.58,142.73,284.84,145.2Z"/><path class="cls-2" d="M346.88,316c-6.34-15.57-6.67-33-11.86-48.31-5.34-15.8-15.56-29.66-21-45.06-1.87-5.26,2.11-12,1.39-16.69-1.29-8.38-3.75-17.07-1.38-17.3s8.77-6,11.64-18.9c1.59-7.13-2.37-16.34-1.39-24.93,1.1-8.85,7-16.19,7.06-23.57,0.08-8-5.72-15.54-6.05-23.89-0.45-11.18,3.18-19.5.78-25.05-3.28-7.6-12.35-9.13-17.59-17.27-3.64.34-5.74-4.09-9.38-3.74s-6.38,6.1-10,6.45c-2.21.52-3.69-4.48-5.83-3.72s-0.84,6.61-3.1,6.83S278,55,275.73,54.72s-2.68,4.8-5,4.78c-5.68.57-11.62-4.33-17.3-3.75s-8.53,4.83-14.21,5.41c-5,27.83-14.38,61.35-16.86,98.05-2.22,32.82,2.31,67.37,3.08,100,0.23,9.21-5.1,17.47-5.05,26.13,0,7.92,5.47,16.23,5.32,26.07,0,2.94-5.25,6.21-5,8.89,0.4,3.94,6.08,5.47,6.87,6.71a18.84,18.84,0,0,0,9.42,7.54v15.4a7.3,7.3,0,0,0,14.6,0V332.13c2.37-1.36,4.41-2.76,5.9-3.37,5.24-.37,9.07-21.68,8.79-46.39-0.24-20.94-6.54-42.66-5.62-50.74,0.43-4.39,6.23-7,6.65-9.54,1.07-6.6-.58-11,2.08-11.16,2.88-.21,4.6,8.05,7.78,13.26,2.5,4.11,9.6,6.94,10.41,10.84,2.68,13.44,1.87,28.84,6.72,42.65s15.32,25.78,19.62,38.69c1.46,4.88-2,10.47-.42,11.86,1.8,1.58,6-3.3,11.18-3.73,4.17-.34,10.6,3.39,15.08,1.47C346.18,323.22,347.66,318.16,346.88,316ZM295.3,148c-0.72,5.57-7.62,8.27-10.5,11.84-3.47,4.3-6.06,11.28-11,11.24-4.17-.2-3-4-3.78-7.23-0.42-1.79-6-3.7-6.17-7.65-0.33-7,4.3-19.38,4.29-31.49,0-12.28-4.28-25.77-1.17-32.26,1.39-1.63,6.05,1.82,9,2.07,2.21,0.19,6.06-4.35,8.47-3.27,3.17,1.53,2.2,9.52,4.16,16.16,1.29,4.39,7.57,8.61,8,14.29s-4.68,8.16-5.06,12.9C291.26,137.58,296.19,142,295.3,148Z"/><path class="cls-2" d="M156.54,279.46c-1.48,5.59-8.43,11.58-10.31,19.67-2.08,8.94,1.51,18.49,1.16,23-0.41,5-4.35,4.08-9.92,3.51-2.71-.28-7.49,4.17-12.5,2.71-6.84-2.25-8.63-8.84-11.28-11.16-3.78-3.3-8.45-5.9-7-12.88,6.59-30.36,20.64-66.58,30.75-107.81,8.38-34.2,12.42-72.34,22.3-109.87,1.34-5.52,8.13-8.68,9.86-13.14,2-5.05-.22-12.73,1.9-17.34,3.37,0.05,11.72,4.71,18.09,4.64,7.59-.08,17-4.48,18.31-3.67,1.57,2.69-3,33.55-3,70.46,0,21.52,5.38,45.7,5.4,68.83,0,11.92-4.89,18.8-4.25,25.54s6.79,13,7.1,24.94c0.26,11.15-3,27.36-.89,42.51,2.43,17.51,10.15,34.19,9.16,42.05-0.58,4.33-6.81,3.93-12.1,4.78-3.39.54-7.75,5.74-12.88,4.77-2.6-.48-3.75-6.37-5.79-6.94-3.7-1-8.29,2.95-8.72,2.4-0.63,0,1.9-15.89.39-29s-7.57-23.89-8.21-24c-0.7-1.11-3.33-6.63-8.44-7.23C161.56,275.76,159.1,279.78,156.54,279.46Zm14.69-59.94c-0.06-3.48,5.1-7.76,4.69-11.44-0.48-4.33-6.51-7.41-7.12-10-1.55-6.4-2-9-3.64-.28-0.54,2.84,4.19,7.72,3.31,12.91-0.75,4.6-6.9,8.34-7.54,12.43-1,6.5,3.6,12.55,3.4,14.2-0.52,2.55-4.53,5.78-3.33,6.56,1,0.63,4.17-4.17,6.59-4.06,5.39,0.2,9.33,3.26,9.39-6.3C177,230.19,171.39,225.7,171.23,219.52Z"/><path class="cls-2" d="M162.37,12.42c-0.94-1.06-1.39-5.56-4.23-4.62-15.06,3.62-21.32,7.68-29.18,14.93-5.32,4.91-14.62,10.42-20.75,26.29-6.5,16.77-6.42,31.07-10.49,40.57-7.92,18.5-17.3,24.34-22.54,35.36-1.76,3.59,1.32,9.43-.27,12.2-3.09,5.36-7.74,4.7-8.45,4.71-1-.15-7.3-10-9.76-36.53-1-11,3.57-24.73,3.07-40.55C59.18,41.94,53.24,32.26,50,27c-4.88-8-14.76-5.68-37.83-6.53C8.74,47,11.47,51.08,13.88,70.74,15.1,80.68,12,95.83,15.79,120c3.34,18.27,10.74,29.11,12,37.67,2.49,16.45-3,22-1.14,39.58,1,6.83,4.42,20.8,1.54,36.61-2.11,11.6-10.08,23.27-12.33,35.09-2.21,11.25,1.27,22.69-.12,31.89C13.63,315,8.13,327.63,9.4,333.6a31.72,31.72,0,0,0,7.23,1.76c4.41,2.68,9.3,8.11,8.53,18.92-1.37,19.16-13.68,24.63-15.05,42.42s35.58,32.84,42.42,0c-4.69-19-24.44-37.91-10.21-55.27,1.34,0.85,2.67,1.78,4,2.72a7.55,7.55,0,0,0,11.84-5.47v-0.11c0.49-3.45,6.41-6.19,6.93-9.72,0.59-4.71-3.34-20.2-.85-39.41,1.51-11.64,8.79-24.12,11.05-37.77,2.14-13.3-.73-28,1.85-40,4.31-20.18,13.5-33.41,16.64-35.11,5.17-7.59,4.41-17.19,8.14-24.1,3.45-6.38,11.72-10.45,16.49-18.81,4.14-6.77.87-13.63,2.21-17.93,1.54-4.94,7.59-7.24,11.33-13.91,5.47-9.46,8.17-27.78,15-43.58,7.37-17.19,19-32.7,20.64-41.36C168.1,14,163.25,13.41,162.37,12.42Z"/><path class="cls-2" d="M533.27,314.18c-0.24-1.53-.52-3-0.8-4.53,0.26-.18.51-0.37,0.8-0.55h-0.89c-5.68-30.42-17.52-54-25-82.72-6.29-24.27-7.55-52.89-13.65-90.07-2.77-15.64-10.3-26.41-12.15-35.37-5.29-25.71-4-31.14-11.16-35.13-1.28-.83-6,2.62-8,1.33-1.74-1.15-.43-6.86-1.94-7.92-4.7-3.48-10.24.11-13.31,0.45-4.36.48-9.29,2.53-7.13,8.39,3.74,10.49,14.23,32.57,18.54,55.56,5.71,30.46,9,58.49,5.83,55.57-0.65-.55-5.62,1.77-6.17.72s4.25-3.51,4.15-4.44c0-1.49-11.23-12.29-17.21-24.46A70.21,70.21,0,0,1,438.56,124c-0.08-.74-5.53-0.25-5.93-1s2.84-5.19,2.41-5.53a55.31,55.31,0,0,1-18.28-19.76c-4.19-7.59-3.89-18.73-8-26.89-1.13-2.16-7.1-1.51-8.24-3.28-1.94-3-.57-9.25-1.27-9.46s-4.85,2.49-5.3,1.33c-0.34-.88,4.72-3.15,4.63-4.24-0.13-1.54-5.9-2.09-6.74-4-0.76-1.7,2.7-6.39,1.56-7.73-3.32-3.27-15.56-4.5-25.47-9.3-8.7-4.21-19.54-10.77-26.18-11.63,0.1,35.32,8,71.7,10.45,107.61,2.43,36.23-.73,72.45-1.16,107.45-0.3,17.09,5.18,30.41,5.61,41.81,0.61,16.24-2.73,30.34-.08,43.45,4.53-.21,9.65-1.77,14.65-3.3,3.74,7.74,6.44,21-1.15,40.89-13.35,35,7.89,35,7.89,35s19.87-3.64,6.17-35c-8.72-20-4-35.38.54-44,9.42-.77,20.25.65,25.86-1.86-1.33-18.12-9.11-50.72-11.84-83.55-2.57-30.92,0-62.94-2.66-83.62-0.72-5.59-6.46-9.39-6.43-12.14,0.08-6.79,2.16-4.77,4.56,3-0.51,2,8,8,11.48,15.66,3.65,7.92,2.45,17.75,2.54,18.92,1.65,4,10.53,10,14.33,18.11,3.7,7.88,2.36,18,4.07,22.35,3.93,10.56,15.58,22.18,22.63,35.85s9.61,29.65,15.1,39.54,14.1,13.28,17.76,17.59c6.91,8.11,10.31,12.76,20.2,12.08,4.08-.3,8.87-6,13.93-6.17,0.41,0,.84,0,1.28,0,1.37,1.66,2.4,4.16,2.14,7.93-0.68,9.91-6.83,12.74-7.51,21.95s17.75,17,21.16,0c-2.32-9.78-12-19.47-5.23-28.4A24.83,24.83,0,0,0,533.27,314.18Z"/><path class="cls-3" d="M426.9,189.11s8.19,1.17,7.51,11.08-6.83,12.74-7.51,21.95,17.75,17,21.16,0"/><path class="cls-4" d="M426.9,189.11a5.51,5.51,0,0,1,.81,0,9.24,9.24,0,0,1,5.46,2.58,10,10,0,0,1,2.56,4.39,8,8,0,0,1,.33,1.39,9.26,9.26,0,0,1,.2,1.46c0,0.52.08,0.94,0.07,1.57l0,1.4a22.53,22.53,0,0,1-1.39,6.43,55.93,55.93,0,0,1-2.79,5.94,23.18,23.18,0,0,0-2.09,5.44c-0.08.47-.21,0.92-0.27,1.39l-0.09.71,0,0.35v0.13c0,0.16,0-.19,0-0.15V223l0,0.08c0,0.12,0,.19,0,0.37a5.65,5.65,0,0,0,.28,1,8.87,8.87,0,0,0,3,3.68,10.73,10.73,0,0,0,4.41,1.89,8.06,8.06,0,0,0,4.24-.36,8.94,8.94,0,0,0,3.18-2.2,15.53,15.53,0,0,0,1.93-2.66c0.43-.83.8-1.5,1-2l0.34-.73,0,0.8a15.28,15.28,0,0,1-.27,2.29,12.85,12.85,0,0,1-1.24,3.48,10.36,10.36,0,0,1-3.4,3.8,10.87,10.87,0,0,1-6.05,1.67,14.06,14.06,0,0,1-9.69-4.23,11.33,11.33,0,0,1-2.31-3.34,11,11,0,0,1-.69-2.08,8.87,8.87,0,0,1-.18-1.25l0-.32v-1.22l0-.46,0.1-.93c0.07-.62.22-1.23,0.33-1.85a24.84,24.84,0,0,1,2.74-6.7c0.55-1,1.1-1.9,1.62-2.78s1-1.73,1.39-2.56a22.8,22.8,0,0,0,1.76-5l0.26-1.38c0.05-.28.08-0.77,0.14-1.13a6.47,6.47,0,0,0,.06-1.15,6.93,6.93,0,0,0,0-1.1,8.55,8.55,0,0,0-1.09-3.72,9.07,9.07,0,0,0-2.09-2.39,11.09,11.09,0,0,0-1.83-1.19C427.17,189.21,426.9,189.11,426.9,189.11Z"/><path class="cls-3" d="M63.92,153.18s8.19,1.17,7.51,11.08S64.61,177,63.92,186.21s17.75,17,21.16,0"/><path class="cls-4" d="M63.92,153.18a5.51,5.51,0,0,1,.81,0,9.24,9.24,0,0,1,5.46,2.58,10,10,0,0,1,2.56,4.39,8,8,0,0,1,.33,1.39,9.26,9.26,0,0,1,.2,1.46c0,0.52.08,0.94,0.07,1.57l0,1.4a22.53,22.53,0,0,1-1.39,6.43,55.9,55.9,0,0,1-2.79,5.94A23.18,23.18,0,0,0,67,183.81c-0.08.47-.21,0.92-0.27,1.39l-0.09.71,0,0.35v0.13c0,0.16,0-.19,0-0.15v0.85l0,0.08c0,0.12,0,.19,0,0.37a5.65,5.65,0,0,0,.28,1,8.87,8.87,0,0,0,3,3.68,10.73,10.73,0,0,0,4.41,1.89,8.06,8.06,0,0,0,4.24-.36,8.94,8.94,0,0,0,3.18-2.2,15.54,15.54,0,0,0,1.93-2.66c0.42-.83.8-1.5,1-2l0.34-.73,0,0.8a15.29,15.29,0,0,1-.27,2.29,12.85,12.85,0,0,1-1.24,3.48,10.36,10.36,0,0,1-3.4,3.8,10.87,10.87,0,0,1-6.05,1.67A14.06,14.06,0,0,1,64.41,194a11.32,11.32,0,0,1-2.31-3.34,11,11,0,0,1-.69-2.08,8.88,8.88,0,0,1-.18-1.25l0-.32v-1.22l0-.46,0.1-.93c0.07-.62.22-1.23,0.33-1.85a24.84,24.84,0,0,1,2.74-6.7c0.55-1,1.1-1.9,1.62-2.78s1-1.73,1.39-2.56a22.8,22.8,0,0,0,1.76-5l0.26-1.38c0.05-.28.08-0.77,0.14-1.13a6.48,6.48,0,0,0,.06-1.15,6.92,6.92,0,0,0,0-1.1,8.55,8.55,0,0,0-1.09-3.72,9.07,9.07,0,0,0-2.09-2.39,11.08,11.08,0,0,0-1.83-1.19C64.19,153.28,63.92,153.18,63.92,153.18Z"/><path class="cls-3" d="M18.31,78.05s8.36,0.46,8.28,8.67-6.46,14.93-2.35,22.06,21,5.76,17.33-8.38-6.39-19.16,2.74-22.35"/><path class="cls-4" d="M18.31,78.05a6.81,6.81,0,0,1,1,0,10.3,10.3,0,0,1,2.92.55,8.41,8.41,0,0,1,4,2.78,9.19,9.19,0,0,1,1.41,2.8L27.86,85c0.06,0.28.08,0.56,0.12,0.84l0.11,0.87,0,0.86,0,0.81-0.06.92c0,0.64-.11,1.23-0.2,1.84a36.19,36.19,0,0,1-.76,3.63,55.71,55.71,0,0,0-1.66,7.07,9.19,9.19,0,0,0,.1,3.18,8.43,8.43,0,0,0,.45,1.44l0.36,0.69,0.09,0.17,0,0.09,0,0v0l-0.06-.1,0.29,0.43a2.14,2.14,0,0,0,.14.19L27,108.06l0.16,0.17a5.62,5.62,0,0,0,.52.45,7.28,7.28,0,0,0,1.25.77,8.83,8.83,0,0,0,3.08.78,7.79,7.79,0,0,0,5.75-1.67,5.6,5.6,0,0,0,1.5-2.28,8.51,8.51,0,0,0,.38-3,20.85,20.85,0,0,0-.54-3.44l-0.77-3.63c-0.5-2.37-.94-4.66-1.21-6.84a14.54,14.54,0,0,1,.25-6.26,5.54,5.54,0,0,1,.58-1.33,4.84,4.84,0,0,1,.8-1.07,5.29,5.29,0,0,1,.9-0.79,4.52,4.52,0,0,1,.89-0.56,7.57,7.57,0,0,1,1.58-.68,8.42,8.42,0,0,1,1.2-.35l1-.23-0.88.52a8,8,0,0,0-1,.64,9.39,9.39,0,0,0-1.25,1,5.11,5.11,0,0,0-1.78,3.34,14.71,14.71,0,0,0,.79,5.16c0.58,2,1.35,4.09,2.11,6.39l1.16,3.56a22.48,22.48,0,0,1,1,4.17,12.65,12.65,0,0,1-.31,4.93,10.28,10.28,0,0,1-2.75,4.67,11.36,11.36,0,0,1-4.66,2.71,14.29,14.29,0,0,1-5.16.56,12.11,12.11,0,0,1-9.25-5,12.83,12.83,0,0,1-1.65-9.63A25,25,0,0,1,21.85,97c0.46-1.25.91-2.39,1.35-3.49s0.8-2.15,1.11-3.16c0.15-.51.31-1,0.4-1.47l0.17-.69L25,87.39a8.62,8.62,0,0,0-.52-4.89,7.67,7.67,0,0,0-2.69-2.93,11.81,11.81,0,0,0-2.5-1.22C18.66,78.13,18.31,78.05,18.31,78.05Z"/><path class="cls-3" d="M365.45,60.58s8.36,0.46,8.28,8.67-6.46,14.93-2.35,22.06,21,5.76,17.33-8.38-6.39-19.16,2.74-22.35"/><path class="cls-4" d="M365.45,60.58a6.8,6.8,0,0,1,1,0,10.3,10.3,0,0,1,2.92.55,8.42,8.42,0,0,1,4,2.78,9.19,9.19,0,0,1,1.41,2.8L375,67.52c0.06,0.28.08,0.56,0.12,0.84l0.11,0.87,0,0.86,0,0.81-0.06.92c0,0.64-.11,1.23-0.2,1.84a36.18,36.18,0,0,1-.76,3.63,55.71,55.71,0,0,0-1.66,7.07,9.19,9.19,0,0,0,.1,3.18,8.43,8.43,0,0,0,.45,1.44l0.36,0.69,0.09,0.17,0,0.09,0,0v0l-0.06-.1,0.29,0.43a2.14,2.14,0,0,0,.14.19l0.08,0.08,0.16,0.17a5.62,5.62,0,0,0,.52.45A7.28,7.28,0,0,0,376,92a8.83,8.83,0,0,0,3.08.78,7.79,7.79,0,0,0,5.75-1.67,5.6,5.6,0,0,0,1.5-2.28,8.52,8.52,0,0,0,.38-3,20.86,20.86,0,0,0-.54-3.44l-0.77-3.63c-0.5-2.37-.94-4.66-1.21-6.84a14.54,14.54,0,0,1,.25-6.26,5.54,5.54,0,0,1,.58-1.33,4.84,4.84,0,0,1,.8-1.07,5.29,5.29,0,0,1,.9-0.79,4.52,4.52,0,0,1,.89-0.56,7.57,7.57,0,0,1,1.58-.68,8.41,8.41,0,0,1,1.2-.35l1-.23-0.88.52a8,8,0,0,0-1,.64,9.39,9.39,0,0,0-1.25,1,5.1,5.1,0,0,0-1.78,3.34,14.71,14.71,0,0,0,.79,5.16c0.58,2,1.35,4.09,2.11,6.39l1.16,3.56a22.47,22.47,0,0,1,1,4.17,12.65,12.65,0,0,1-.31,4.93,10.28,10.28,0,0,1-2.75,4.67,11.36,11.36,0,0,1-4.66,2.71,14.3,14.3,0,0,1-5.16.56,12.11,12.11,0,0,1-9.25-5,12.83,12.83,0,0,1-1.65-9.63A25,25,0,0,1,369,79.53c0.46-1.25.91-2.39,1.35-3.49s0.8-2.15,1.11-3.16c0.15-.51.31-1,0.4-1.47l0.17-.69,0.11-.79a8.62,8.62,0,0,0-.52-4.89,7.67,7.67,0,0,0-2.69-2.93,11.8,11.8,0,0,0-2.5-1.22C365.8,60.66,365.45,60.58,365.45,60.58Z"/><path class="cls-3" d="M56.93,210.64s5.65,0.31,5.6,5.85-4.36,10.09-1.59,14.9,14.17,3.89,11.71-5.66-4.31-12.94,1.85-15.1"/><path class="cls-4" d="M56.93,210.64a4.28,4.28,0,0,1,.71-0.06,6.74,6.74,0,0,1,2,.27,5.87,5.87,0,0,1,2.9,1.85,7.4,7.4,0,0,1,1.5,4.39l0,0.55,0,0.66c0,0.46-.06.88-0.11,1.3-0.1.85-.28,1.69-0.46,2.53a37.45,37.45,0,0,0-1,4.69,5.44,5.44,0,0,0,.11,1.88,4.81,4.81,0,0,0,.27.8l0.22,0.39,0.05,0.1,0,0v0h0l-0.15-.23,0.22,0.28c0.14,0.17.3,0.39,0.42,0.53a0.33,0.33,0,0,1,.16,0,0.67,0.67,0,0,0,.07.06l0.18,0.09,0.34,0.2a5.18,5.18,0,0,0,1.77.42,5.25,5.25,0,0,0,1.83-.15,4.93,4.93,0,0,0,.76-0.31l0.35-.17a3.28,3.28,0,0,1,.27-0.23,2.57,2.57,0,0,0,.47-0.51c0.14-.19.21-0.43,0.36-0.64s0.14-.53.2-0.81,0-.62.06-0.94A45.32,45.32,0,0,0,69.8,223c-0.29-1.62-.55-3.18-0.69-4.69a10.53,10.53,0,0,1,.34-4.41,4.34,4.34,0,0,1,1.07-1.7,4.71,4.71,0,0,1,1.32-.9,4.9,4.9,0,0,1,1.12-.41,5.75,5.75,0,0,1,.84-0.18l0.7-.11-0.58.4a8.42,8.42,0,0,0-1.45,1.19,3.13,3.13,0,0,0-1,2.19,10.13,10.13,0,0,0,.71,3.3c0.44,1.28,1,2.7,1.56,4.24a30.46,30.46,0,0,1,1.6,5.33c0,0.58.08,1.16,0.09,1.76s-0.17,1.25-.28,1.88a11.89,11.89,0,0,1-.78,1.88,7.82,7.82,0,0,1-1.29,1.64c-0.25.24-.51,0.48-0.78,0.71l-0.87.55a8.56,8.56,0,0,1-1.83.81,10.49,10.49,0,0,1-7.53-.59c-0.3-.16-0.59-0.34-0.88-0.52l-0.43-.28c-0.15-.11-0.32-0.26-0.47-0.4-0.31-.28-0.61-0.58-0.89-0.89s-0.28-.39-0.42-0.59l-0.2-.29-0.17-.27v0l0-.05-0.05-.11-0.1-.22c-0.13-.29-0.27-0.57-0.39-0.87a9.9,9.9,0,0,1-.45-1.86,9.48,9.48,0,0,1,.15-3.52,28.16,28.16,0,0,1,1.85-5.18c0.31-.72.58-1.41,0.8-2.06,0.11-.33.23-0.66,0.3-0.93l0.13-.43,0.1-.53a5.5,5.5,0,0,0-.12-3.09,4.83,4.83,0,0,0-1.6-2,8.15,8.15,0,0,0-1.62-.93C57.17,210.72,56.93,210.64,56.93,210.64Z"/><path class="cls-4" d="M184.31,186.89a4.29,4.29,0,0,1,.71-0.06,6.75,6.75,0,0,1,2,.27,5.87,5.87,0,0,1,2.9,1.85,7.4,7.4,0,0,1,1.5,4.39l0,0.55,0,0.66c0,0.46-.06.88-0.11,1.3-0.1.85-.28,1.69-0.46,2.53a37.46,37.46,0,0,0-1,4.69,5.44,5.44,0,0,0,.11,1.88,4.79,4.79,0,0,0,.27.8l0.22,0.39,0.05,0.1,0,0v0h0l-0.15-.23,0.22,0.28c0.14,0.17.3,0.39,0.42,0.53a0.33,0.33,0,0,1,.16,0,0.66,0.66,0,0,0,.07.06l0.18,0.09,0.34,0.21a5.18,5.18,0,0,0,1.77.42,5.25,5.25,0,0,0,1.83-.15,4.93,4.93,0,0,0,.76-0.31l0.35-.17a3.28,3.28,0,0,1,.27-0.23,2.57,2.57,0,0,0,.47-0.51c0.14-.19.21-0.43,0.36-0.64s0.14-.53.2-0.81,0-.62.06-0.94a45.32,45.32,0,0,0-.74-4.67c-0.29-1.62-.55-3.18-0.69-4.69a10.53,10.53,0,0,1,.34-4.41,4.34,4.34,0,0,1,1.07-1.7,4.71,4.71,0,0,1,1.32-.9,4.9,4.9,0,0,1,1.12-.41,5.76,5.76,0,0,1,.84-0.18l0.7-.11-0.58.4a8.41,8.41,0,0,0-1.45,1.19,3.13,3.13,0,0,0-1,2.19,10.13,10.13,0,0,0,.71,3.3c0.44,1.28,1,2.7,1.56,4.24a30.45,30.45,0,0,1,1.6,5.33c0,0.58.08,1.16,0.09,1.76s-0.17,1.25-.28,1.88a11.89,11.89,0,0,1-.78,1.88,7.82,7.82,0,0,1-1.29,1.64c-0.25.24-.51,0.48-0.78,0.71l-0.87.55a8.56,8.56,0,0,1-1.83.81,10.49,10.49,0,0,1-7.53-.59c-0.3-.16-0.59-0.34-0.88-0.52l-0.43-.28c-0.15-.11-0.32-0.26-0.47-0.4-0.31-.28-0.61-0.58-0.89-0.89s-0.28-.39-0.42-0.59l-0.2-.29L186,209v0l0-.05-0.05-.11-0.1-.22c-0.13-.29-0.27-0.57-0.39-0.87a9.9,9.9,0,0,1-.45-1.86,9.48,9.48,0,0,1,.15-3.52,28.17,28.17,0,0,1,1.85-5.18c0.31-.72.58-1.41,0.8-2.06,0.11-.33.23-0.66,0.3-0.93l0.13-.43,0.1-.53a5.5,5.5,0,0,0-.12-3.09,4.83,4.83,0,0,0-1.6-2,8.15,8.15,0,0,0-1.62-.93C184.55,187,184.31,186.89,184.31,186.89Z"/><path class="cls-3" d="M184.31,110.35s-6.54.36-6.49,6.79,5.06,11.69,1.84,17.27-16.43,4.51-13.57-6.56,5-15-2.14-17.5"/><path class="cls-4" d="M184.31,110.35s-0.27.08-.76,0.26a9.37,9.37,0,0,0-1.92,1,5.86,5.86,0,0,0-2,2.31,6.51,6.51,0,0,0-.24,3.69l0.1,0.62,0.14,0.52c0.08,0.33.2,0.72,0.33,1.11,0.25,0.77.56,1.58,0.9,2.43a33.65,33.65,0,0,1,2.07,6,10.53,10.53,0,0,1-1.33,7.94,10,10,0,0,1-7.68,4.18,11.77,11.77,0,0,1-4.26-.47,9.43,9.43,0,0,1-3.87-2.27,8.56,8.56,0,0,1-2.29-3.91,10.32,10.32,0,0,1-.23-4.06,17.42,17.42,0,0,1,.84-3.34l1-2.78c0.63-1.79,1.25-3.45,1.73-5a11.57,11.57,0,0,0,.75-3.92,3.83,3.83,0,0,0-1.24-2.57,7.54,7.54,0,0,0-.94-0.8,6.25,6.25,0,0,0-.78-0.54l-0.68-.44,0.8,0.15a6.64,6.64,0,0,1,1,.24,5.78,5.78,0,0,1,1.28.5,5.39,5.39,0,0,1,1.48,1,4.83,4.83,0,0,1,1.17,1.94,11.88,11.88,0,0,1,.32,5c-0.19,1.74-.51,3.53-0.87,5.4l-0.56,2.85a15.51,15.51,0,0,0-.37,2.62,6.14,6.14,0,0,0,.3,2.17,3.87,3.87,0,0,0,1,1.53,5.59,5.59,0,0,0,4.06,1.14,6.34,6.34,0,0,0,2.2-.55,5.4,5.4,0,0,0,.87-0.52,3.87,3.87,0,0,0,.35-0.3l0.09-.09,0,0a1.45,1.45,0,0,0,.11-0.15l0.23-.34-0.06.11v0l0,0,0-.06,0.06-.12,0.26-.49a6,6,0,0,0,.33-1,6.68,6.68,0,0,0,.11-2.31,43.59,43.59,0,0,0-1.2-5.48c-0.22-1-.44-1.92-0.56-2.89-0.06-.48-0.12-1-0.14-1.48l0-.75,0-.63,0-.69,0.1-.7a6,6,0,0,1,.31-1.34,7.46,7.46,0,0,1,1.19-2.26,6.64,6.64,0,0,1,3.25-2.16,7.92,7.92,0,0,1,2.33-.36A5.1,5.1,0,0,1,184.31,110.35Z"/><path class="cls-3" d="M285.63,167.81s5.65,0.39,5.6,7.47-4.36,12.87-1.59,19,14.17,5,11.71-7.22-4.31-16.51,1.85-19.26"/><path class="cls-4" d="M285.63,167.81a3.91,3.91,0,0,1,.84,0,6.08,6.08,0,0,1,2.35.68,6.63,6.63,0,0,1,2.79,2.87,10.08,10.08,0,0,1,.85,2.36c0.11,0.43.14,0.87,0.21,1.32l0,0.17a0.6,0.6,0,0,1,0,.14v0.08l0,0.31,0,0.63a28.51,28.51,0,0,1-.52,5.83c-0.34,2-.8,3.95-1,5.81a13.8,13.8,0,0,0,0,2.66,9.36,9.36,0,0,0,.7,2.38l0,0.07v0.05l-0.11-.22,0.11,0.18,0.22,0.36,0.22,0.36a1,1,0,0,0,.1.16l0.07,0a0.65,0.65,0,0,1,.21.18c0.08,0.08.25,0.17,0.36,0.27a3.35,3.35,0,0,0,1.79.64,3.13,3.13,0,0,0,1.83-.31,4.89,4.89,0,0,0,.77-0.47c0.1-.12.2-0.24,0.31-0.35l0.17-.17,0.12-.22c0.08-.15.18-0.29,0.27-0.43a4.91,4.91,0,0,0,.2-0.52c0.06-.18.15-0.34,0.21-0.53l0.11-.6,0.12-.6,0-.66a7.55,7.55,0,0,0,0-1.33L299,187.58l-0.22-1.52-0.42-3c-0.26-1.94-.49-3.8-0.61-5.56a16.83,16.83,0,0,1,.28-5,5.91,5.91,0,0,1,2.13-3.43,7.69,7.69,0,0,1,2.18-1.08l0.8-.23-0.65.51a8.09,8.09,0,0,0-1.56,1.57,4.88,4.88,0,0,0-.83,2.93,18.57,18.57,0,0,0,.78,4.23c0.43,1.59,1,3.33,1.51,5.21l0.81,2.9c0.14,0.5.27,1,.4,1.52l0.33,1.76a10.1,10.1,0,0,1,.17,1.87l0,1c0,0.33-.07.67-0.11,1l-0.13,1c-0.07.35-.19,0.7-0.29,1a9.85,9.85,0,0,1-.37,1l-0.55,1-0.29.5-0.38.47c-0.26.31-.52,0.62-0.79,0.91a8.83,8.83,0,0,1-2,1.39,8.52,8.52,0,0,1-4.75.89,8.78,8.78,0,0,1-4.47-1.7,10.07,10.07,0,0,1-1-.79c-0.32-.35-0.62-0.71-0.91-1.08l-0.21-.28a1.81,1.81,0,0,1-.12-0.2l-0.2-.37-0.2-.37-0.1-.18c-0.25-.48-0.08-0.15-0.13-0.27v0l0-.06,0-.12a12.92,12.92,0,0,1-.91-4,16,16,0,0,1,.27-3.79,46.89,46.89,0,0,1,1.77-6.13,34.44,34.44,0,0,0,1.35-5,10.41,10.41,0,0,0,.06-4.12,5.8,5.8,0,0,0-1.48-2.75,6.47,6.47,0,0,0-1.8-1.26A5.45,5.45,0,0,0,285.63,167.81Z"/><path class="cls-3" d="M360.89,271.58s5.65,0.39,5.6,7.47-4.36,12.87-1.59,19,14.17,5,11.71-7.22-4.31-16.51,1.85-19.26"/><path class="cls-4" d="M360.89,271.58a3.91,3.91,0,0,1,.84,0,6.08,6.08,0,0,1,2.35.68,6.63,6.63,0,0,1,2.79,2.87,10.08,10.08,0,0,1,.85,2.36c0.11,0.43.14,0.87,0.21,1.32l0,0.17a0.6,0.6,0,0,1,0,.14v0.08l0,0.31,0,0.63a28.51,28.51,0,0,1-.52,5.83c-0.34,2-.8,3.95-1,5.81a13.81,13.81,0,0,0,0,2.66,9.37,9.37,0,0,0,.7,2.38l0,0.07V297l-0.11-.22,0.11,0.18,0.22,0.36,0.22,0.36a1,1,0,0,0,.1.16l0.07,0a0.65,0.65,0,0,1,.21.18c0.08,0.08.25,0.17,0.36,0.27a3.35,3.35,0,0,0,1.79.64,3.13,3.13,0,0,0,1.83-.31,4.9,4.9,0,0,0,.77-0.47c0.1-.12.2-0.24,0.31-0.35l0.17-.17,0.12-.22c0.08-.15.18-0.29,0.27-0.43a4.91,4.91,0,0,0,.2-0.52c0.06-.18.15-0.34,0.21-0.53l0.11-.6,0.12-.6,0-.66a7.55,7.55,0,0,0,0-1.33l-0.11-1.36-0.22-1.52-0.42-3c-0.26-1.94-.49-3.8-0.61-5.56a16.83,16.83,0,0,1,.28-5,5.91,5.91,0,0,1,2.13-3.43,7.7,7.7,0,0,1,2.18-1.08l0.8-.23-0.65.51a8.09,8.09,0,0,0-1.56,1.57,4.88,4.88,0,0,0-.83,2.93,18.58,18.58,0,0,0,.78,4.23c0.43,1.59,1,3.33,1.51,5.21l0.81,2.9c0.14,0.5.27,1,.4,1.52l0.33,1.76a10.09,10.09,0,0,1,.17,1.87l0,1c0,0.33-.07.67-0.11,1l-0.13,1c-0.07.35-.19,0.7-0.29,1a9.85,9.85,0,0,1-.37,1l-0.55,1-0.29.5-0.38.47c-0.26.31-.52,0.62-0.79,0.91a8.83,8.83,0,0,1-2,1.39,8.52,8.52,0,0,1-4.75.89,8.78,8.78,0,0,1-4.47-1.7,10.05,10.05,0,0,1-1-.79c-0.32-.35-0.62-0.71-0.91-1.08l-0.21-.28a1.81,1.81,0,0,1-.12-0.2l-0.2-.37-0.2-.37-0.1-.18c-0.25-.48-0.08-0.15-0.13-0.27v0l0-.06,0-.12a12.92,12.92,0,0,1-.91-4,16,16,0,0,1,.27-3.79,46.92,46.92,0,0,1,1.77-6.13,34.43,34.43,0,0,0,1.35-5,10.41,10.41,0,0,0,.06-4.12,5.8,5.8,0,0,0-1.48-2.75,6.47,6.47,0,0,0-1.8-1.26A5.44,5.44,0,0,0,360.89,271.58Z"/><path class="cls-3" d="M129.51,246.83s10.24,0.52,10.15,9.87-7.91,17-2.88,25.14,25.7,6.57,21.23-9.55-7.82-21.83,3.35-25.47"/><path class="cls-4" d="M129.51,246.83a9,9,0,0,1,1.2,0,13.35,13.35,0,0,1,3.38.6,10.2,10.2,0,0,1,4.7,3,10.48,10.48,0,0,1,2.39,7.08v0.94c0,0.32,0,.7-0.08,1.05s-0.06.73-.1,1.09l-0.17,1a38.9,38.9,0,0,1-1,4.2A57.77,57.77,0,0,0,137.7,274a9,9,0,0,0,1.78,7.06,8,8,0,0,0,1.19,1,9.09,9.09,0,0,0,1.64.89,12.11,12.11,0,0,0,3.89.9,11,11,0,0,0,7.37-1.89,6.51,6.51,0,0,0,2-2.68,8.57,8.57,0,0,0,.56-3.55,6.86,6.86,0,0,0-.07-1,7.32,7.32,0,0,0-.14-1l-0.19-1-0.26-1.09-1-4.22c-0.65-2.75-1.25-5.39-1.63-7.92a15.21,15.21,0,0,1,.24-7.26,7.07,7.07,0,0,1,.73-1.51,8.65,8.65,0,0,1,1-1.19,9,9,0,0,1,2.14-1.44,10,10,0,0,1,1.84-.75,11,11,0,0,1,1.39-.38l1.16-.26-1.05.55a10.56,10.56,0,0,0-1.23.69,12.58,12.58,0,0,0-1.53,1.06,5.91,5.91,0,0,0-2.42,3.78,14.83,14.83,0,0,0,.82,6c0.68,2.28,1.6,4.77,2.52,7.44l1.4,4.14,0.35,1.06,0.34,1.23a11.06,11.06,0,0,1,.27,1.27,10.84,10.84,0,0,1,.19,1.32,12.91,12.91,0,0,1-.6,5.68,11.24,11.24,0,0,1-3.5,5,14.08,14.08,0,0,1-5.34,2.69,18.29,18.29,0,0,1-5.76.52,17.53,17.53,0,0,1-5.64-1.38c-0.46-.18-0.9-0.44-1.34-0.66s-0.87-.52-1.28-0.84a11.73,11.73,0,0,1-2.36-2.29c-0.15-.2-0.24-0.34-0.36-0.52l-0.17-.25-0.11-.16,0,0,0-.08-0.09-.16-0.67-1.31a11.13,11.13,0,0,1-.5-1.39l-0.22-.71c-0.06-.24-0.09-0.48-0.14-0.73a13.87,13.87,0,0,1,.07-5.58,27,27,0,0,1,1.41-4.71c0.56-1.45,1.11-2.76,1.63-4.05s1-2.51,1.33-3.69l0.27-.88,0.2-.83c0.06-.28.14-0.53,0.18-0.83l0.12-.93a8.61,8.61,0,0,0-.94-5.66,9.56,9.56,0,0,0-3.45-3.22,15.42,15.42,0,0,0-3-1.28C129.92,246.91,129.51,246.83,129.51,246.83Z"/><path class="cls-3" d="M266.24,83s12.2-2.86,10.36,9.16,7.86,12,11,10.3,12.34-6.87,12.91,7.44S312,124.17,315.4,119s-4.58-15.91,0-20,9.16-11.53,6.3-16.39"/><path class="cls-4" d="M266.24,83a9.69,9.69,0,0,1,1.31-.36,12.52,12.52,0,0,1,3.91-.27,8,8,0,0,1,2.84.8A6.31,6.31,0,0,1,277,85.66a9.56,9.56,0,0,1,1.12,4,12.86,12.86,0,0,1,0,2.16l-0.09,2c-0.06,2.51.63,5.26,2.52,6.37A6.11,6.11,0,0,0,284,101a6.58,6.58,0,0,0,1.86-.36,2,2,0,0,0,.38-0.15l0.16-.08,0.21-.11,1.2-.68a15.46,15.46,0,0,1,6-2,8,8,0,0,1,3.93.63,7.74,7.74,0,0,1,3.14,2.69,11.74,11.74,0,0,1,1.51,3.25,18.08,18.08,0,0,1,.66,3.17c0.06,0.52.12,1,.15,1.54l0,0.77,0.05,0.57a17.67,17.67,0,0,0,.33,2.61l0.22,1.1L304.2,115a4.85,4.85,0,0,0,.43,1,4.51,4.51,0,0,0,.51.93,5.36,5.36,0,0,0,2.82,2.33,5.07,5.07,0,0,0,3.48-.17,5.77,5.77,0,0,0,.78-0.41c0.23-.17.45-0.36,0.67-0.54l0.26-.32,0.14-.15,0,0-0.06.1,0,0,0.09-.14,0.18-.28a0.65,0.65,0,0,1,0-.08,1.26,1.26,0,0,0,.11-0.27,9.16,9.16,0,0,0,0-4c-0.24-1.55-.64-3.14-1-4.76a23.21,23.21,0,0,1-.6-5.09,8.43,8.43,0,0,1,.51-2.78,5.76,5.76,0,0,1,1.7-2.39l0.81-.67,0.7-.63c0.45-.42.9-0.87,1.32-1.31a23.62,23.62,0,0,0,2.22-2.68,16.51,16.51,0,0,0,2.52-5,7.61,7.61,0,0,0,.18-3.63,5.16,5.16,0,0,0-.27-1l-0.11-.33,0.19,0.29a4.53,4.53,0,0,1,.5.89,7.68,7.68,0,0,1,.6,3.9,16.05,16.05,0,0,1-1.8,5.93,26,26,0,0,1-2,3.27,20.32,20.32,0,0,1-1.28,1.65l-0.73.83-0.72.76c-1.28,1.19-.66,4,0.24,7,0.45,1.5,1,3.1,1.4,4.87a18.41,18.41,0,0,1,.48,2.85,10.15,10.15,0,0,1-.24,3.38,6.23,6.23,0,0,1-.33,1l-0.23.53-0.16.29-0.08.15,0,0-0.11.17-0.07.09-0.28.37-0.57.72a14.43,14.43,0,0,1-1.36,1.22,10.79,10.79,0,0,1-1.56.93,10,10,0,0,1-7.22.6,10.49,10.49,0,0,1-5.77-4.4,9,9,0,0,1-.86-1.51,9.09,9.09,0,0,1-.68-1.55l-0.53-1.58c-0.12-.55-0.24-1.1-0.34-1.66a22.41,22.41,0,0,1-.35-3l-0.06-.83,0-.64c0-.43-0.07-0.84-0.11-1.25a10.33,10.33,0,0,0-1.18-4.12,2.59,2.59,0,0,0-.95-0.92,2.83,2.83,0,0,0-1.4-.27,11.6,11.6,0,0,0-4.14,1.24l-1.12.55-0.37.17-0.44.19a5.85,5.85,0,0,1-.84.28,10.44,10.44,0,0,1-3.19.39,10.12,10.12,0,0,1-5.91-1.94,8.49,8.49,0,0,1-3.1-5,6.73,6.73,0,0,1-.21-1.31,9.29,9.29,0,0,1-.09-1.28l0-1.26,0-.61,0.08-.52,0.34-2.08a14.33,14.33,0,0,0,.24-1.77,7.28,7.28,0,0,0-.36-3.09,5.54,5.54,0,0,0-3.84-3.19,13.61,13.61,0,0,0-3.68-.49A13.31,13.31,0,0,0,266.24,83Z"/><path class="cls-3" d="M24.16,250.86s8.08,0,6.87,10.1,0.4,15.35,7.68,14.14-6.46-12.53,0-15.76,12.2,3.23,14.38-3.23"/><path class="cls-4" d="M24.16,250.86a4.92,4.92,0,0,1,.79-0.08,7.33,7.33,0,0,1,2.27.28A6.9,6.9,0,0,1,30.43,253a9.19,9.19,0,0,1,2.23,4.5,16.3,16.3,0,0,1,.25,2.79v1.38l0,1.36a36,36,0,0,0,.31,5.3,10.68,10.68,0,0,0,.61,2.35,3.12,3.12,0,0,0,1,1.39,2.62,2.62,0,0,0,1.48.48,2.49,2.49,0,0,0,.54,0,4.42,4.42,0,0,0,.58,0l0.62-.08,0.16,0h0.1l-0.15,0h0l0.39-.09,0.16,0h0s0,0-.07,0a0.12,0.12,0,0,0-.07.06,0.35,0.35,0,0,0-.15.16,0.47,0.47,0,0,0-.13.23,0.33,0.33,0,0,0-.06.18,0.07,0.07,0,0,0,0,.06,0.42,0.42,0,0,1,0-.06,4.23,4.23,0,0,0-.21-0.86c-0.12-.38-0.3-0.8-0.49-1.24l-1.29-2.79A21.61,21.61,0,0,1,35,264.87a10.19,10.19,0,0,1-.35-1.93,5.84,5.84,0,0,1,.24-2.31,5,5,0,0,1,1.36-2.15,5.82,5.82,0,0,1,1.9-1.12l0.65-.21a5.36,5.36,0,0,1,.74-0.2,8.82,8.82,0,0,1,1.67-.26,9.66,9.66,0,0,1,1.49,0,9,9,0,0,1,1.38.16A40.91,40.91,0,0,1,48.39,258a4.2,4.2,0,0,0,2.81.08,3.71,3.71,0,0,0,.88-0.66l0.34-.34c0.09-.12.16-0.24,0.23-0.34l0.44-.64-0.16.77c0,0.13-.06.27-0.1,0.43l-0.21.49a3.67,3.67,0,0,1-.79,1.17c-0.22.17-.46,0.34-0.73,0.52s-0.58.25-.91,0.37a9.57,9.57,0,0,1-1,.18c-0.33,0-.7,0-1,0-1.4,0-2.87-.14-4.31-0.08a8,8,0,0,0-1.07.09,6.26,6.26,0,0,0-1,.21,6.69,6.69,0,0,0-.89.3,2.72,2.72,0,0,0-.53.24l-0.61.31-0.15.08,0,0,0.12-.05h0l0,0-0.13.11a1.13,1.13,0,0,0-.18.19,0.47,0.47,0,0,0-.05.28,4.53,4.53,0,0,0,.38,1.55,24.66,24.66,0,0,0,1.18,2.41c0.47,0.86,1,1.77,1.49,2.79,0.25,0.51.51,1,.75,1.66a8.3,8.3,0,0,1,.56,2.21,6.66,6.66,0,0,1,0,.74,7.57,7.57,0,0,1-.09.85,6.87,6.87,0,0,1-.3.94,6.55,6.55,0,0,1-.54.91,7.38,7.38,0,0,1-.71.73,7.74,7.74,0,0,1-.74.49,4.88,4.88,0,0,1-.8.35l-0.41.14-0.23.06-0.39.09h0l-0.2,0H39l-0.24,0-1,.11a9.47,9.47,0,0,1-1,0,6.58,6.58,0,0,1-1.05-.05,7.68,7.68,0,0,1-4.32-1.79A7.94,7.94,0,0,1,29,272.4a13.54,13.54,0,0,1-.62-3.6,30,30,0,0,1,.43-6.21L29,261.26,29.26,260a15.19,15.19,0,0,0,.25-2.19,7.59,7.59,0,0,0-.75-3.58,6.26,6.26,0,0,0-2-2.2,8.56,8.56,0,0,0-1.87-1C24.43,250.93,24.16,250.86,24.16,250.86Z"/><path class="cls-3" d="M382.13,95.68s8.08,0,6.87,10.1,0.4,15.35,7.68,14.14-6.46-12.53,0-15.76,12.2,3.23,14.38-3.23"/><path class="cls-4" d="M382.13,95.68a4.91,4.91,0,0,1,.79-0.08,7.33,7.33,0,0,1,2.27.28,6.9,6.9,0,0,1,3.21,1.93,9.19,9.19,0,0,1,2.23,4.5,16.3,16.3,0,0,1,.25,2.79v1.38l0,1.36a36,36,0,0,0,.31,5.3,10.68,10.68,0,0,0,.61,2.35,3.12,3.12,0,0,0,1,1.39,2.62,2.62,0,0,0,1.48.48,2.48,2.48,0,0,0,.54,0,4.42,4.42,0,0,0,.58,0l0.62-.08,0.16,0h0.1l-0.15,0h0l0.39-.09,0.16,0h0s0,0-.07,0a0.12,0.12,0,0,0-.07.06,0.35,0.35,0,0,0-.15.16,0.47,0.47,0,0,0-.13.23,0.33,0.33,0,0,0-.06.18,0.07,0.07,0,0,0,0,.06,0.42,0.42,0,0,1,0-.06,4.23,4.23,0,0,0-.21-0.86c-0.12-.38-0.3-0.8-0.49-1.24l-1.29-2.79a21.61,21.61,0,0,1-1.21-3.19,10.19,10.19,0,0,1-.35-1.93,5.84,5.84,0,0,1,.24-2.31,5,5,0,0,1,1.36-2.15,5.82,5.82,0,0,1,1.9-1.12l0.65-.21a5.35,5.35,0,0,1,.74-0.2,8.82,8.82,0,0,1,1.67-.26,9.65,9.65,0,0,1,1.49,0,9,9,0,0,1,1.38.16,40.92,40.92,0,0,1,4.33,1.16,4.2,4.2,0,0,0,2.81.08,3.71,3.71,0,0,0,.88-0.66l0.34-.34c0.09-.12.16-0.24,0.23-0.34l0.44-.64-0.16.77c0,0.13-.06.27-0.1,0.43l-0.21.49a3.67,3.67,0,0,1-.79,1.17c-0.22.17-.46,0.34-0.73,0.52s-0.58.25-.91,0.37a9.57,9.57,0,0,1-1,.18c-0.33,0-.7,0-1,0-1.4,0-2.87-.14-4.31-0.08a8,8,0,0,0-1.07.09,6.26,6.26,0,0,0-1,.21,6.68,6.68,0,0,0-.89.3,2.72,2.72,0,0,0-.53.24l-0.61.31-0.15.08,0,0,0.12-.05h0l0,0-0.13.11a1.13,1.13,0,0,0-.18.19,0.47,0.47,0,0,0-.05.28,4.52,4.52,0,0,0,.38,1.55,24.65,24.65,0,0,0,1.18,2.41c0.47,0.86,1,1.77,1.49,2.79,0.25,0.51.51,1,.75,1.66a8.3,8.3,0,0,1,.56,2.21,6.63,6.63,0,0,1,0,.74,7.59,7.59,0,0,1-.09.85,6.88,6.88,0,0,1-.3.94,6.54,6.54,0,0,1-.54.91,7.38,7.38,0,0,1-.71.73,7.73,7.73,0,0,1-.74.49,4.87,4.87,0,0,1-.8.35l-0.41.14-0.23.06-0.39.09h0l-0.2,0H397l-0.24,0-1,.11a9.47,9.47,0,0,1-1,0,6.58,6.58,0,0,1-1.05-.05,7.68,7.68,0,0,1-4.32-1.79,7.94,7.94,0,0,1-2.41-3.74,13.54,13.54,0,0,1-.62-3.6,30.05,30.05,0,0,1,.43-6.21l0.25-1.34,0.22-1.24a15.21,15.21,0,0,0,.25-2.19,7.59,7.59,0,0,0-.75-3.58,6.26,6.26,0,0,0-2-2.2,8.56,8.56,0,0,0-1.87-1C382.4,95.74,382.13,95.68,382.13,95.68Z"/><path class="cls-3" d="M364.89,179.23a15.12,15.12,0,0,1,6.45,13.44c-0.54,9.14,2.57,16.82,9.89,15.13s5.7-23.2,5.7-23.2"/><path class="cls-4" d="M364.89,179.23a5.5,5.5,0,0,1,.66.28,11.56,11.56,0,0,1,1.76,1,14.5,14.5,0,0,1,2.43,2.17,15.27,15.27,0,0,1,2.36,3.64,15.82,15.82,0,0,1,1.31,5.09c0.08,1,.11,1.77.14,2.67s0.1,1.58.23,2.43a21.12,21.12,0,0,0,1.14,4.78,7.45,7.45,0,0,0,2.29,3.35,4.41,4.41,0,0,0,3.39.55h0l-0.21.06h0l0.09,0,0.17-.05,0.34-.1c0.08,0,0,0,.05,0a2.22,2.22,0,0,1,.26-0.16l0.29-.25a7.07,7.07,0,0,0,1.13-1.63,22.22,22.22,0,0,0,1.6-4.41c0.41-1.52.72-3,1-4.42,0.53-2.8.89-5.21,1.17-6.9s0.42-2.68.42-2.68a26.83,26.83,0,0,1,.67,2.65,44.53,44.53,0,0,1,.91,7.15,36.63,36.63,0,0,1-.09,4.9,21.3,21.3,0,0,1-1.21,5.66,10.76,10.76,0,0,1-1.75,3.08c-0.23.25-.46,0.5-0.71,0.75s-0.56.46-.87,0.69a10,10,0,0,1-1.21.62l-0.34.12-0.17.06-0.08,0h0l-0.25.07h-0.06a18.63,18.63,0,0,1-1.84.29,8.9,8.9,0,0,1-2-.07l-1-.18c-0.33-.1-0.67-0.22-1-0.34a9.1,9.1,0,0,1-1.86-1,11.91,11.91,0,0,1-4.14-6.06,21,21,0,0,1-1-6.2A25.31,25.31,0,0,1,369,194l0.26-2.46a15.16,15.16,0,0,0-.2-4.15,16.59,16.59,0,0,0-2.56-6A15.72,15.72,0,0,0,364.89,179.23Z"/><path class="cls-3" d="M490.54,252.33A15.12,15.12,0,0,1,497,265.77c-0.54,9.14,2.57,16.82,9.89,15.13s5.7-23.2,5.7-23.2"/><path class="cls-4" d="M490.54,252.33a5.51,5.51,0,0,1,.66.28,11.57,11.57,0,0,1,1.76,1,14.5,14.5,0,0,1,2.43,2.17,15.27,15.27,0,0,1,2.36,3.64,15.81,15.81,0,0,1,1.31,5.09c0.08,1,.11,1.77.14,2.67s0.1,1.58.23,2.43a21.11,21.11,0,0,0,1.14,4.78,7.45,7.45,0,0,0,2.29,3.35,4.41,4.41,0,0,0,3.39.55h0l-0.21.06h0l0.09,0,0.17-.05,0.34-.1c0.08,0,0,0,.05,0A2.22,2.22,0,0,1,507,278l0.29-.25a7.07,7.07,0,0,0,1.13-1.63,22.22,22.22,0,0,0,1.6-4.41c0.41-1.52.72-3,1-4.42,0.53-2.8.89-5.21,1.17-6.9s0.42-2.68.42-2.68a26.83,26.83,0,0,1,.67,2.65,44.54,44.54,0,0,1,.91,7.15,36.63,36.63,0,0,1-.09,4.9,21.3,21.3,0,0,1-1.21,5.66,10.75,10.75,0,0,1-1.75,3.08c-0.23.25-.46,0.5-0.71,0.75s-0.56.46-.87,0.69a10,10,0,0,1-1.21.62l-0.34.12-0.17.06-0.08,0h0l-0.25.07H507.4a18.64,18.64,0,0,1-1.84.29,8.9,8.9,0,0,1-2-.07l-1-.18c-0.33-.1-0.67-0.22-1-0.34a9.1,9.1,0,0,1-1.86-1,11.91,11.91,0,0,1-4.14-6.06,21,21,0,0,1-1-6.2,25.34,25.34,0,0,1,.1-2.92L495,264.6a15.17,15.17,0,0,0-.2-4.15,16.59,16.59,0,0,0-2.56-6A15.72,15.72,0,0,0,490.54,252.33Z"/><path class="cls-3" d="M461.57,174.71a12.59,12.59,0,0,1,5.37,11.19c-0.45,7.61,2.14,14,8.23,12.6s4.75-19.31,4.75-19.31"/><path class="cls-4" d="M461.57,174.71a4.4,4.4,0,0,1,.57.21,9.33,9.33,0,0,1,1.52.83,11.86,11.86,0,0,1,2.1,1.77,12.65,12.65,0,0,1,2.07,3,13.27,13.27,0,0,1,1.18,4.31c0.08,0.85.11,1.49,0.15,2.24s0.1,1.29.22,2a17.59,17.59,0,0,0,1,3.86,5.82,5.82,0,0,0,1.75,2.56,3.24,3.24,0,0,0,2.46.4h0l-0.21.06h0l0.07,0,0.14,0,0.29-.08s-0.06,0-.05,0a0.85,0.85,0,0,1,.17-0.09l0.2-.16a5.4,5.4,0,0,0,.89-1.24,18.34,18.34,0,0,0,1.36-3.57c0.36-1.25.65-2.49,0.9-3.64,0.5-2.32.86-4.32,1.15-5.73s0.44-2.23.44-2.23a20.41,20.41,0,0,1,.65,2.2,34.51,34.51,0,0,1,.93,6,29.37,29.37,0,0,1,0,4.12,17.59,17.59,0,0,1-1,4.82A9.21,9.21,0,0,1,479,199c-0.2.22-.41,0.45-0.63,0.66s-0.5.42-.78,0.62a8.57,8.57,0,0,1-1.11.56l-0.28.1-0.14.05L476,201h0l-0.25.07h0a15.74,15.74,0,0,1-1.6.26,7.73,7.73,0,0,1-1.75-.05l-0.9-.16c-0.3-.08-0.59-0.19-0.88-0.3a8,8,0,0,1-1.64-.86,10.29,10.29,0,0,1-3.6-5.27,17.54,17.54,0,0,1-.79-5.28,20.74,20.74,0,0,1,.11-2.47c0.1-.71.17-1.49,0.25-2a12.62,12.62,0,0,0-.07-3.37,14,14,0,0,0-1.94-5A13.81,13.81,0,0,0,461.57,174.71Z"/><path class="cls-3" d="M481.3,192.2a9.27,9.27,0,0,1,4,8.24c-0.33,5.6,1.58,10.31,6.06,9.28s3.5-14.22,3.5-14.22"/><path class="cls-4" d="M481.3,192.2a3,3,0,0,1,.44.12,6.5,6.5,0,0,1,1.19.54,8.47,8.47,0,0,1,1.68,1.25,9.25,9.25,0,0,1,1.69,2.27,10,10,0,0,1,1,3.3c0.08,0.66.11,1.12,0.16,1.67s0.1,0.9.21,1.4a12.92,12.92,0,0,0,.73,2.65,3.68,3.68,0,0,0,1,1.53,1.68,1.68,0,0,0,1.24.2h0l-0.22.06h0.07l0.11,0,0.21-.06a0.33,0.33,0,0,0-.19.09h0l0.09-.05a3,3,0,0,0,.57-0.72,13,13,0,0,0,1.05-2.46c0.3-.89.55-1.78,0.78-2.62l1.12-4.18c0.28-1,.47-1.65.47-1.65a13,13,0,0,1,.62,1.62,22.34,22.34,0,0,1,1,4.43,20.09,20.09,0,0,1,.12,3.1,12.74,12.74,0,0,1-.67,3.72,7.17,7.17,0,0,1-1.19,2.17c-0.17.19-.33,0.37-0.52,0.56s-0.41.35-.65,0.52a6.83,6.83,0,0,1-1,.49l-0.21.08-0.1,0-0.05,0h0l-0.24.07h0a12.05,12.05,0,0,1-1.29.22,6.2,6.2,0,0,1-1.43,0,6.52,6.52,0,0,1-2.83-1.09,8.16,8.16,0,0,1-2.9-4.24,13,13,0,0,1-.56-4.08,14.75,14.75,0,0,1,.12-1.88c0.09-.52.15-1.11,0.23-1.47a9.28,9.28,0,0,0,.09-2.36,10.52,10.52,0,0,0-1.14-3.75A11.31,11.31,0,0,0,481.3,192.2Z"/><path class="cls-3" d="M106.42,99.06a9.27,9.27,0,0,1,4,8.24c-0.33,5.6,1.58,10.31,6.06,9.28s3.5-14.22,3.5-14.22"/><path class="cls-4" d="M106.42,99.06a3,3,0,0,1,.44.12,6.5,6.5,0,0,1,1.19.54,8.47,8.47,0,0,1,1.68,1.25,9.25,9.25,0,0,1,1.69,2.27,9.94,9.94,0,0,1,1,3.3c0.08,0.66.12,1.12,0.16,1.67s0.1,0.9.21,1.4a12.94,12.94,0,0,0,.73,2.65,3.68,3.68,0,0,0,1,1.53,1.68,1.68,0,0,0,1.24.2h0l-0.22.06h0.07l0.11,0,0.21-.06a0.33,0.33,0,0,0-.19.09h0l0.09-.05a3,3,0,0,0,.57-0.72,13,13,0,0,0,1.05-2.46c0.3-.89.55-1.78,0.78-2.62l1.12-4.18c0.28-1,.47-1.65.47-1.65a13,13,0,0,1,.62,1.62,22.34,22.34,0,0,1,1,4.43,20.1,20.1,0,0,1,.12,3.1,12.73,12.73,0,0,1-.67,3.72,7.16,7.16,0,0,1-1.19,2.17c-0.17.19-.33,0.37-0.52,0.56s-0.41.35-.65,0.52a6.83,6.83,0,0,1-1,.49l-0.21.08-0.1,0-0.05,0h0l-0.24.07h0a12.06,12.06,0,0,1-1.29.22,6.2,6.2,0,0,1-1.43,0,6.52,6.52,0,0,1-2.83-1.09,8.16,8.16,0,0,1-2.9-4.24,13,13,0,0,1-.56-4.08,14.74,14.74,0,0,1,.12-1.88c0.09-.52.15-1.11,0.23-1.47a9.29,9.29,0,0,0,.09-2.36,10.52,10.52,0,0,0-1.14-3.75A11.3,11.3,0,0,0,106.42,99.06Z"/><path class="cls-3" d="M232.67,209.59c0.35,7.58,1.78,24.06,10.7,20,5.45-2.49,8.18-12.94,7.27-20"/><path class="cls-4" d="M232.67,209.59s0.27,0.76.66,2.06l1.57,5.33a52.81,52.81,0,0,0,2.48,7,10.21,10.21,0,0,0,1.87,2.84,2.8,2.8,0,0,0,.91.6,1.73,1.73,0,0,0,.9.06,4,4,0,0,0,.62-0.12l0.35-.13,0.18-.07h0l-0.19.1,0.06,0,0.13-.07,0.5-.27a1.61,1.61,0,0,0,.39-0.24c0.14-.14.27-0.18,0.47-0.36a11.86,11.86,0,0,0,2.25-2.74,23.27,23.27,0,0,0,1.73-3.3c0.26-.55.48-1.11,0.68-1.66s0.39-1.08.58-1.6c0.35-1,.63-2,0.87-2.9s0.43-1.67.55-2.33,0.24-1.19.29-1.55l0.1-.56,0.21,0.53a11.35,11.35,0,0,1,.49,1.55,18.5,18.5,0,0,1,.48,2.49,23.23,23.23,0,0,1-.3,7.24,19.59,19.59,0,0,1-1.37,4.34,13.82,13.82,0,0,1-2.92,4.37,12.5,12.5,0,0,1-1.28,1.07,4,4,0,0,1-.57.38l-0.49.28-0.12.07-0.06,0-0.22.11h0l0,0-0.35.14c-0.24.09-.47,0.19-0.71,0.28a9,9,0,0,1-1.61.37,7.16,7.16,0,0,1-3.59-.45,7.64,7.64,0,0,1-2.76-2,10,10,0,0,1-1.59-2.4,15.06,15.06,0,0,1-.94-2.36,28.19,28.19,0,0,1-1.08-8.25,36.33,36.33,0,0,1,.48-5.69c0.09-.68.23-1.22,0.29-1.58Z"/><path class="cls-3" d="M291.66,265c0.35,7.58,1.78,24.06,10.7,20,5.45-2.49,8.18-12.94,7.27-20"/><path class="cls-4" d="M291.66,265s0.27,0.76.66,2.06l1.57,5.33a52.83,52.83,0,0,0,2.48,7,10.21,10.21,0,0,0,1.87,2.84,2.8,2.8,0,0,0,.91.6,1.74,1.74,0,0,0,.9.06,4,4,0,0,0,.62-0.12l0.35-.13,0.18-.07h0l-0.19.1,0.06,0,0.13-.07,0.5-.27a1.61,1.61,0,0,0,.39-0.24c0.15-.14.27-0.18,0.47-0.36a11.86,11.86,0,0,0,2.25-2.74,23.27,23.27,0,0,0,1.73-3.3c0.26-.55.48-1.11,0.68-1.66s0.39-1.08.58-1.6c0.35-1,.63-2,0.87-2.9s0.43-1.67.55-2.33,0.24-1.19.29-1.55l0.1-.56,0.21,0.53a11.36,11.36,0,0,1,.49,1.55,18.52,18.52,0,0,1,.48,2.49,23.24,23.24,0,0,1-.3,7.24,19.6,19.6,0,0,1-1.37,4.34,13.82,13.82,0,0,1-2.92,4.37,12.53,12.53,0,0,1-1.28,1.07,4,4,0,0,1-.57.38l-0.49.28-0.12.07-0.06,0-0.22.11h0l0,0-0.35.14c-0.24.09-.47,0.19-0.71,0.28a9,9,0,0,1-1.61.37,7.16,7.16,0,0,1-3.59-.45,7.64,7.64,0,0,1-2.76-2,10,10,0,0,1-1.59-2.4,15.08,15.08,0,0,1-.94-2.36,28.18,28.18,0,0,1-1.08-8.25,36.34,36.34,0,0,1,.48-5.69c0.09-.68.23-1.22,0.29-1.58Z"/></svg>