<svg id="stars" xmlns="http://www.w3.org/2000/svg" viewBox="0 0 1878.8 449.16"><defs><style>.cls-1{fill:#fff;}</style></defs><title>header</title><path class="cls-1" d="M736.81,360.95c-7.74.9-8.47,1.63-9.37,9.37-0.9-7.74-1.63-8.47-9.37-9.37,7.74-.9,8.47-1.63,9.37-9.37C728.34,359.31,729.07,360,736.81,360.95Z"/><path class="cls-1" d="M503.7,304.84c-3.87.45-4.23,0.82-4.69,4.69-0.45-3.87-.82-4.23-4.69-4.69,3.87-.45,4.23-0.82,4.69-4.69C499.46,304,499.83,304.39,503.7,304.84Z"/><path class="cls-1" d="M17.86,417.63c-3.08.36-3.37,0.65-3.73,3.73-0.36-3.08-.65-3.37-3.73-3.73,3.08-.36,3.37-0.65,3.73-3.73C14.49,417,14.78,417.27,17.86,417.63Z"/><path class="cls-1" d="M215,370.61c-3.08.36-3.37,0.65-3.73,3.73-0.36-3.08-.65-3.37-3.73-3.73,3.08-.36,3.37-0.65,3.73-3.73C211.63,370,211.93,370.26,215,370.61Z"/><path class="cls-1" d="M65.28,370.61c-3.87.45-4.23,0.82-4.69,4.69-0.45-3.87-.82-4.23-4.69-4.69,3.87-.45,4.23-0.82,4.69-4.69C61,369.8,61.41,370.16,65.28,370.61Z"/><path class="cls-1" d="M219.1,348.15c-3.87.45-4.23,0.82-4.69,4.69-0.45-3.87-.82-4.23-4.69-4.69,3.87-.45,4.23-0.82,4.69-4.69C214.86,347.33,215.23,347.69,219.1,348.15Z"/><path class="cls-1" d="M297.62,406.84c-3.87.45-4.23,0.82-4.69,4.69-0.45-3.87-.82-4.23-4.69-4.69,3.87-.45,4.23-0.82,4.69-4.69C293.39,406,293.75,406.39,297.62,406.84Z"/><path class="cls-1" d="M30.47,352.83c-7.74.9-8.47,1.63-9.37,9.37-0.9-7.74-1.63-8.47-9.37-9.37,7.74-.9,8.47-1.63,9.37-9.37C22,351.2,22.73,351.93,30.47,352.83Z"/><path class="cls-1" d="M736.81,360.95c-7.74.9-8.47,1.63-9.37,9.37-0.9-7.74-1.63-8.47-9.37-9.37,7.74-.9,8.47-1.63,9.37-9.37C728.34,359.31,729.07,360,736.81,360.95Z"/><path class="cls-1" d="M1516.37,439.78c-7.74.9-8.47,1.63-9.37,9.37-0.9-7.74-1.63-8.47-9.37-9.37,7.74-.9,8.47-1.63,9.37-9.37C1507.9,438.15,1508.63,438.88,1516.37,439.78Z"/><path class="cls-1" d="M1516.37,439.78c-7.74.9-8.47,1.63-9.37,9.37-0.9-7.74-1.63-8.47-9.37-9.37,7.74-.9,8.47-1.63,9.37-9.37C1507.9,438.15,1508.63,438.88,1516.37,439.78Z"/><path class="cls-1" d="M1306.09,328.42c-7.74.9-8.47,1.63-9.37,9.37-0.9-7.74-1.63-8.47-9.37-9.37,7.74-.9,8.47-1.63,9.37-9.37C1297.62,326.78,1298.35,327.51,1306.09,328.42Z"/><path class="cls-1" d="M1306.09,328.42c-7.74.9-8.47,1.63-9.37,9.37-0.9-7.74-1.63-8.47-9.37-9.37,7.74-.9,8.47-1.63,9.37-9.37C1297.62,326.78,1298.35,327.51,1306.09,328.42Z"/><path class="cls-1" d="M503.7,304.84c-3.87.45-4.23,0.82-4.69,4.69-0.45-3.87-.82-4.23-4.69-4.69,3.87-.45,4.23-0.82,4.69-4.69C499.46,304,499.83,304.39,503.7,304.84Z"/><path class="cls-1" d="M17.86,417.63c-3.08.36-3.37,0.65-3.73,3.73-0.36-3.08-.65-3.37-3.73-3.73,3.08-.36,3.37-0.65,3.73-3.73C14.49,417,14.78,417.27,17.86,417.63Z"/><path class="cls-1" d="M215,370.61c-3.08.36-3.37,0.65-3.73,3.73-0.36-3.08-.65-3.37-3.73-3.73,3.08-.36,3.37-0.65,3.73-3.73C211.63,370,211.93,370.26,215,370.61Z"/><path class="cls-1" d="M65.28,370.61c-3.87.45-4.23,0.82-4.69,4.69-0.45-3.87-.82-4.23-4.69-4.69,3.87-.45,4.23-0.82,4.69-4.69C61,369.8,61.41,370.16,65.28,370.61Z"/><path class="cls-1" d="M219.1,348.15c-3.87.45-4.23,0.82-4.69,4.69-0.45-3.87-.82-4.23-4.69-4.69,3.87-.45,4.23-0.82,4.69-4.69C214.86,347.33,215.23,347.69,219.1,348.15Z"/><path class="cls-1" d="M297.62,406.84c-3.87.45-4.23,0.82-4.69,4.69-0.45-3.87-.82-4.23-4.69-4.69,3.87-.45,4.23-0.82,4.69-4.69C293.39,406,293.75,406.39,297.62,406.84Z"/><path class="cls-1" d="M1796.19,374.54c-3.08.36-3.37,0.65-3.73,3.73-0.36-3.08-.65-3.37-3.73-3.73,3.08-.36,3.37-0.65,3.73-3.73C1792.81,373.89,1793.11,374.18,1796.19,374.54Z"/><path class="cls-1" d="M1646.46,374.54c-3.87.45-4.23,0.82-4.69,4.69-0.45-3.87-.82-4.23-4.69-4.69,3.87-.45,4.23-0.82,4.69-4.69C1642.22,373.73,1642.59,374.09,1646.46,374.54Z"/><path class="cls-1" d="M1715,382.3c-3.87.45-4.23,0.82-4.69,4.69-0.45-3.87-.82-4.23-4.69-4.69,3.87-.45,4.23-0.82,4.69-4.69C1710.76,381.48,1711.12,381.85,1715,382.3Z"/><path class="cls-1" d="M1878.8,410.77c-3.87.45-4.23,0.82-4.69,4.69-0.45-3.87-.82-4.23-4.69-4.69,3.87-.45,4.23-0.82,4.69-4.69C1874.57,409.95,1874.93,410.31,1878.8,410.77Z"/><path class="cls-1" d="M1796.19,374.54c-3.08.36-3.37,0.65-3.73,3.73-0.36-3.08-.65-3.37-3.73-3.73,3.08-.36,3.37-0.65,3.73-3.73C1792.81,373.89,1793.11,374.18,1796.19,374.54Z"/><path class="cls-1" d="M1646.46,374.54c-3.87.45-4.23,0.82-4.69,4.69-0.45-3.87-.82-4.23-4.69-4.69,3.87-.45,4.23-0.82,4.69-4.69C1642.22,373.73,1642.59,374.09,1646.46,374.54Z"/><path class="cls-1" d="M1715,382.3c-3.87.45-4.23,0.82-4.69,4.69-0.45-3.87-.82-4.23-4.69-4.69,3.87-.45,4.23-0.82,4.69-4.69C1710.76,381.48,1711.12,381.85,1715,382.3Z"/><path class="cls-1" d="M1878.8,410.77c-3.87.45-4.23,0.82-4.69,4.69-0.45-3.87-.82-4.23-4.69-4.69,3.87-.45,4.23-0.82,4.69-4.69C1874.57,409.95,1874.93,410.31,1878.8,410.77Z"/><path class="cls-1" d="M963.38,333.1c-3.87.45-4.23,0.82-4.69,4.69-0.45-3.87-.82-4.23-4.69-4.69,3.87-.45,4.23-0.82,4.69-4.69C959.15,332.29,959.51,332.65,963.38,333.1Z"/><path class="cls-1" d="M757.3,435.1c-3.87.45-4.23,0.82-4.69,4.69-0.45-3.87-.82-4.23-4.69-4.69,3.87-.45,4.23-0.82,4.69-4.69C753.07,434.28,753.44,434.65,757.3,435.1Z"/><path class="cls-1" d="M963.38,333.1c-3.87.45-4.23,0.82-4.69,4.69-0.45-3.87-.82-4.23-4.69-4.69,3.87-.45,4.23-0.82,4.69-4.69C959.15,332.29,959.51,332.65,963.38,333.1Z"/><path class="cls-1" d="M757.3,435.1c-3.87.45-4.23,0.82-4.69,4.69-0.45-3.87-.82-4.23-4.69-4.69,3.87-.45,4.23-0.82,4.69-4.69C753.07,434.28,753.44,434.65,757.3,435.1Z"/><path class="cls-1" d="M654.06,81.19c-7.74.9-8.47,1.63-9.37,9.37-0.9-7.74-1.63-8.47-9.37-9.37,7.74-.9,8.47-1.63,9.37-9.37C645.59,79.55,646.32,80.28,654.06,81.19Z"/><path class="cls-1" d="M654.06,81.19c-7.74.9-8.47,1.63-9.37,9.37-0.9-7.74-1.63-8.47-9.37-9.37,7.74-.9,8.47-1.63,9.37-9.37C645.59,79.55,646.32,80.28,654.06,81.19Z"/><path class="cls-1" d="M1469.92,232.79c-7.74.9-8.47,1.63-9.37,9.37-0.9-7.74-1.63-8.47-9.37-9.37,7.74-.9,8.47-1.63,9.37-9.37C1461.45,231.16,1462.19,231.89,1469.92,232.79Z"/><path class="cls-1" d="M1469.92,232.79c-7.74.9-8.47,1.63-9.37,9.37-0.9-7.74-1.63-8.47-9.37-9.37,7.74-.9,8.47-1.63,9.37-9.37C1461.45,231.16,1462.19,231.89,1469.92,232.79Z"/><path class="cls-1" d="M1373.44,44c-7.74.9-8.47,1.63-9.37,9.37-0.9-7.74-1.63-8.47-9.37-9.37,7.74-.9,8.47-1.63,9.37-9.37C1365,42.33,1365.7,43.07,1373.44,44Z"/><path class="cls-1" d="M1506.08,53.34c-7.74.9-8.47,1.63-9.37,9.37-0.9-7.74-1.63-8.47-9.37-9.37,7.74-.9,8.47-1.63,9.37-9.37C1497.61,51.71,1498.35,52.44,1506.08,53.34Z"/><path class="cls-1" d="M1749.74,167.55c-3.08.36-3.37,0.65-3.73,3.73-0.36-3.08-.65-3.37-3.73-3.73,3.08-.36,3.37-0.65,3.73-3.73C1746.37,166.9,1746.66,167.19,1749.74,167.55Z"/><path class="cls-1" d="M1600,167.55c-3.87.45-4.23,0.82-4.69,4.69-0.45-3.87-.82-4.23-4.69-4.69,3.87-.45,4.23-0.82,4.69-4.69C1595.78,166.73,1596.14,167.1,1600,167.55Z"/><path class="cls-1" d="M1632.23,102.54c-3.87.45-4.23,0.82-4.69,4.69-0.45-3.87-.82-4.23-4.69-4.69,3.87-.45,4.23-0.82,4.69-4.69C1628,101.72,1628.37,102.08,1632.23,102.54Z"/><path class="cls-1" d="M1832.36,203.77c-3.87.45-4.23,0.82-4.69,4.69-0.45-3.87-.82-4.23-4.69-4.69,3.87-.45,4.23-0.82,4.69-4.69C1828.12,203,1828.49,203.32,1832.36,203.77Z"/><path class="cls-1" d="M1749.74,167.55c-3.08.36-3.37,0.65-3.73,3.73-0.36-3.08-.65-3.37-3.73-3.73,3.08-.36,3.37-0.65,3.73-3.73C1746.37,166.9,1746.66,167.19,1749.74,167.55Z"/><path class="cls-1" d="M1600,167.55c-3.87.45-4.23,0.82-4.69,4.69-0.45-3.87-.82-4.23-4.69-4.69,3.87-.45,4.23-0.82,4.69-4.69C1595.78,166.73,1596.14,167.1,1600,167.55Z"/><path class="cls-1" d="M1632.23,102.54c-3.87.45-4.23,0.82-4.69,4.69-0.45-3.87-.82-4.23-4.69-4.69,3.87-.45,4.23-0.82,4.69-4.69C1628,101.72,1628.37,102.08,1632.23,102.54Z"/><path class="cls-1" d="M1832.36,203.77c-3.87.45-4.23,0.82-4.69,4.69-0.45-3.87-.82-4.23-4.69-4.69,3.87-.45,4.23-0.82,4.69-4.69C1828.12,203,1828.49,203.32,1832.36,203.77Z"/><path class="cls-1" d="M880.63,53.34c-3.87.45-4.23,0.82-4.69,4.69-0.45-3.87-.82-4.23-4.69-4.69,3.87-.45,4.23-0.82,4.69-4.69C876.39,52.52,876.76,52.89,880.63,53.34Z"/><path class="cls-1" d="M674.55,155.34c-3.87.45-4.23,0.82-4.69,4.69-0.45-3.87-.82-4.23-4.69-4.69,3.87-.45,4.23-0.82,4.69-4.69C670.31,154.52,670.68,154.89,674.55,155.34Z"/><path class="cls-1" d="M880.63,53.34c-3.87.45-4.23,0.82-4.69,4.69-0.45-3.87-.82-4.23-4.69-4.69,3.87-.45,4.23-0.82,4.69-4.69C876.39,52.52,876.76,52.89,880.63,53.34Z"/><path class="cls-1" d="M674.55,155.34c-3.87.45-4.23,0.82-4.69,4.69-0.45-3.87-.82-4.23-4.69-4.69,3.87-.45,4.23-0.82,4.69-4.69C670.31,154.52,670.68,154.89,674.55,155.34Z"/><path class="cls-1" d="M18.75,46.59c-7.74.9-8.47,1.63-9.37,9.37C8.47,48.23,7.74,47.49,0,46.59c7.74-.9,8.47-1.63,9.37-9.37C10.28,45,11,45.69,18.75,46.59Z"/><path class="cls-1" d="M18.75,46.59c-7.74.9-8.47,1.63-9.37,9.37C8.47,48.23,7.74,47.49,0,46.59c7.74-.9,8.47-1.63,9.37-9.37C10.28,45,11,45.69,18.75,46.59Z"/><path class="cls-1" d="M738.13,9.37c-7.74.9-8.47,1.63-9.37,9.37-0.9-7.74-1.63-8.47-9.37-9.37,7.74-.9,8.47-1.63,9.37-9.37C729.66,7.74,730.39,8.47,738.13,9.37Z"/><path class="cls-1" d="M245.32,18.75c-3.87.45-4.23,0.82-4.69,4.69-0.45-3.87-.82-4.23-4.69-4.69,3.87-.45,4.23-0.82,4.69-4.69C241.08,17.93,241.45,18.29,245.32,18.75Z"/><path class="cls-1" d="M39.24,120.74c-3.87.45-4.23,0.82-4.69,4.69-0.45-3.87-.82-4.23-4.69-4.69,3.87-.45,4.23-0.82,4.69-4.69C35,119.92,35.37,120.29,39.24,120.74Z"/><path class="cls-1" d="M245.32,18.75c-3.87.45-4.23,0.82-4.69,4.69-0.45-3.87-.82-4.23-4.69-4.69,3.87-.45,4.23-0.82,4.69-4.69C241.08,17.93,241.45,18.29,245.32,18.75Z"/><path class="cls-1" d="M39.24,120.74c-3.87.45-4.23,0.82-4.69,4.69-0.45-3.87-.82-4.23-4.69-4.69,3.87-.45,4.23-0.82,4.69-4.69C35,119.92,35.37,120.29,39.24,120.74Z"/><path class="cls-1" d="M30.47,352.83c-7.74.9-8.47,1.63-9.37,9.37-0.9-7.74-1.63-8.47-9.37-9.37,7.74-.9,8.47-1.63,9.37-9.37C22,351.2,22.73,351.93,30.47,352.83Z"/></svg>