<?xml version="1.0" encoding="utf-8"?>
<!-- Generator: Adobe Illustrator 19.2.1, SVG Export Plug-In . SVG Version: 6.00 Build 0)  -->
<svg version="1.1" xmlns="http://www.w3.org/2000/svg" xmlns:xlink="http://www.w3.org/1999/xlink" x="0px" y="0px"
	 viewBox="0 0 1878.800415 449.1568298" enable-background="new 0 0 1878.800415 449.1568298" xml:space="preserve">
<g id="ref">
</g>
<g id="background">
</g>
<g id="glow_2_">
</g>
<g id="moon">
</g>
<g id="stars">
	<g>
		<path fill="#FFFFFF" d="M736.8117065,360.9478149c-7.7383423,0.9025879-8.4700317,1.6342773-9.3726196,9.3725891
			c-0.9025879-7.7383118-1.6342773-8.4700012-9.3725586-9.3725891c7.7382812-0.9025574,8.4699707-1.6342468,9.3725586-9.3725586
			C728.3416748,359.3135681,729.0733643,360.0452576,736.8117065,360.9478149z"/>
		<path fill="#FFFFFF" d="M503.6986084,304.8416748c-3.8691711,0.4512939-4.2350159,0.8171387-4.6863098,4.6863098
			c-0.4512939-3.8691711-0.8171387-4.2350159-4.6862793-4.6863098c3.8691406-0.4512939,4.2349854-0.8171082,4.6862793-4.6862793
			C499.4635925,304.0245667,499.8294373,304.3903809,503.6986084,304.8416748z"/>
		<path fill="#FFFFFF" d="M17.8589172,417.6295166c-3.0799894,0.3592529-3.3712158,0.6504822-3.7304611,3.7304688
			c-0.3592453-3.0799866-0.6504717-3.3712158-3.7304621-3.7304688c3.0799904-0.3592224,3.3712168-0.6504517,3.7304621-3.7304382
			C14.4877014,416.9790649,14.7789278,417.2702942,17.8589172,417.6295166z"/>
		<path fill="#FFFFFF" d="M215.0057068,370.6148376c-3.0800018,0.3592529-3.3712158,0.6504517-3.7304688,3.7304688
			c-0.3592377-3.0800171-0.6504669-3.3712158-3.7304535-3.7304688c3.0799866-0.3592529,3.3712158-0.6504822,3.7304535-3.7304688
			C211.634491,369.9643555,211.925705,370.2555847,215.0057068,370.6148376z"/>
		<path fill="#FFFFFF" d="M65.2756805,370.6148376c-3.8691521,0.4512939-4.2349968,0.8171387-4.6862869,4.6862793
			c-0.4512939-3.8691406-0.8171349-4.2349854-4.6862869-4.6862793c3.8691521-0.4512939,4.234993-0.8171387,4.6862869-4.6862793
			C61.0406837,369.797699,61.4065285,370.1635437,65.2756805,370.6148376z"/>
		<path fill="#FFFFFF" d="M219.0985107,348.1459045c-3.8691559,0.4512939-4.2350006,0.8171387-4.6862946,4.6863098
			c-0.4512787-3.8691711-0.8171234-4.2350159-4.6862793-4.6863098c3.8691559-0.4512939,4.2350006-0.8171387,4.6862793-4.6862793
			C214.8635101,347.3287659,215.2293549,347.6946106,219.0985107,348.1459045z"/>
		<path fill="#FFFFFF" d="M297.6210022,406.8374939c-3.8691406,0.4512939-4.2349854,0.8171387-4.6862793,4.6862793
			c-0.4512939-3.8691406-0.8171387-4.2349854-4.6863098-4.6862793c3.8691711-0.4512939,4.2350159-0.8171387,4.6863098-4.6862793
			C293.3860168,406.0203552,293.7518616,406.3862,297.6210022,406.8374939z"/>
		<path fill="#FFFFFF" d="M30.4704685,352.8322144c-7.7383022,0.9025574-8.4699917,1.6342468-9.3725758,9.3725586
			c-0.9025841-7.7383118-1.6342716-8.4700012-9.3725748-9.3725586c7.7383032-0.9025879,8.4699907-1.6342773,9.3725748-9.3725891
			C22.0004768,351.197937,22.7321663,351.9296265,30.4704685,352.8322144z"/>
		<path fill="#FFFFFF" d="M736.8117065,360.9478149c-7.7383423,0.9025879-8.4700317,1.6342773-9.3726196,9.3725891
			c-0.9025879-7.7383118-1.6342773-8.4700012-9.3725586-9.3725891c7.7382812-0.9025574,8.4699707-1.6342468,9.3725586-9.3725586
			C728.3416748,359.3135681,729.0733643,360.0452576,736.8117065,360.9478149z"/>
		<path fill="#FFFFFF" d="M1516.3673096,439.7842407c-7.7382812,0.9025879-8.4699707,1.6342773-9.3725586,9.3725891
			c-0.9025879-7.7383118-1.6342773-8.4700012-9.3725586-9.3725891c7.7382812-0.9025879,8.4699707-1.6342773,9.3725586-9.3725586
			C1507.8973389,438.1499634,1508.6290283,438.8816528,1516.3673096,439.7842407z"/>
		<path fill="#FFFFFF" d="M1516.3673096,439.7842407c-7.7382812,0.9025879-8.4699707,1.6342773-9.3725586,9.3725891
			c-0.9025879-7.7383118-1.6342773-8.4700012-9.3725586-9.3725891c7.7382812-0.9025879,8.4699707-1.6342773,9.3725586-9.3725586
			C1507.8973389,438.1499634,1508.6290283,438.8816528,1516.3673096,439.7842407z"/>
		<path fill="#FFFFFF" d="M1306.0909424,328.415863c-7.7384033,0.9025879-8.4700928,1.6342773-9.3725586,9.3725586
			c-0.9025879-7.7382812-1.6342773-8.4699707-9.3726807-9.3725586c7.7384033-0.9025879,8.4700928-1.6342773,9.3726807-9.3725891
			C1297.6208496,326.7815857,1298.3525391,327.5132751,1306.0909424,328.415863z"/>
		<path fill="#FFFFFF" d="M1306.0909424,328.415863c-7.7384033,0.9025879-8.4700928,1.6342773-9.3725586,9.3725586
			c-0.9025879-7.7382812-1.6342773-8.4699707-9.3726807-9.3725586c7.7384033-0.9025879,8.4700928-1.6342773,9.3726807-9.3725891
			C1297.6208496,326.7815857,1298.3525391,327.5132751,1306.0909424,328.415863z"/>
		<path fill="#FFFFFF" d="M503.6986084,304.8416748c-3.8691711,0.4512939-4.2350159,0.8171387-4.6863098,4.6863098
			c-0.4512939-3.8691711-0.8171387-4.2350159-4.6862793-4.6863098c3.8691406-0.4512939,4.2349854-0.8171082,4.6862793-4.6862793
			C499.4635925,304.0245667,499.8294373,304.3903809,503.6986084,304.8416748z"/>
		<path fill="#FFFFFF" d="M17.8589172,417.6295166c-3.0799894,0.3592529-3.3712158,0.6504822-3.7304611,3.7304688
			c-0.3592453-3.0799866-0.6504717-3.3712158-3.7304621-3.7304688c3.0799904-0.3592224,3.3712168-0.6504517,3.7304621-3.7304382
			C14.4877014,416.9790649,14.7789278,417.2702942,17.8589172,417.6295166z"/>
		<path fill="#FFFFFF" d="M215.0057068,370.6148376c-3.0800018,0.3592529-3.3712158,0.6504517-3.7304688,3.7304688
			c-0.3592377-3.0800171-0.6504669-3.3712158-3.7304535-3.7304688c3.0799866-0.3592529,3.3712158-0.6504822,3.7304535-3.7304688
			C211.634491,369.9643555,211.925705,370.2555847,215.0057068,370.6148376z"/>
		<path fill="#FFFFFF" d="M65.2756805,370.6148376c-3.8691521,0.4512939-4.2349968,0.8171387-4.6862869,4.6862793
			c-0.4512939-3.8691406-0.8171349-4.2349854-4.6862869-4.6862793c3.8691521-0.4512939,4.234993-0.8171387,4.6862869-4.6862793
			C61.0406837,369.797699,61.4065285,370.1635437,65.2756805,370.6148376z"/>
		<path fill="#FFFFFF" d="M219.0985107,348.1459045c-3.8691559,0.4512939-4.2350006,0.8171387-4.6862946,4.6863098
			c-0.4512787-3.8691711-0.8171234-4.2350159-4.6862793-4.6863098c3.8691559-0.4512939,4.2350006-0.8171387,4.6862793-4.6862793
			C214.8635101,347.3287659,215.2293549,347.6946106,219.0985107,348.1459045z"/>
		<path fill="#FFFFFF" d="M297.6210022,406.8374939c-3.8691406,0.4512939-4.2349854,0.8171387-4.6862793,4.6862793
			c-0.4512939-3.8691406-0.8171387-4.2349854-4.6863098-4.6862793c3.8691711-0.4512939,4.2350159-0.8171387,4.6863098-4.6862793
			C293.3860168,406.0203552,293.7518616,406.3862,297.6210022,406.8374939z"/>
		<path fill="#FFFFFF" d="M1796.1851807,374.5428162c-3.0800781,0.3592529-3.3712158,0.6504822-3.7304688,3.7304688
			c-0.3592529-3.0799866-0.6505127-3.3712158-3.7304688-3.7304688c3.0799561-0.3592529,3.3712158-0.6504822,3.7304688-3.7304688
			C1792.8139648,373.892334,1793.1051025,374.1835632,1796.1851807,374.5428162z"/>
		<path fill="#FFFFFF" d="M1646.4550781,374.5428162c-3.8691406,0.4512939-4.2349854,0.8171387-4.6862793,4.6862793
			c-0.4512939-3.8691406-0.8171387-4.2349854-4.6862793-4.6862793c3.8691406-0.4512939,4.2349854-0.8171387,4.6862793-4.6862793
			C1642.2200928,373.7256775,1642.5859375,374.0915222,1646.4550781,374.5428162z"/>
		<path fill="#FFFFFF" d="M1714.9899902,382.2971497c-3.8691406,0.4512939-4.2349854,0.8171387-4.6862793,4.6862793
			c-0.4512939-3.8691406-0.8171387-4.2349854-4.6862793-4.6862793c3.8691406-0.4512939,4.2349854-0.8171387,4.6862793-4.6863098
			C1710.7550049,381.480011,1711.1208496,381.8458557,1714.9899902,382.2971497z"/>
		<path fill="#FFFFFF" d="M1878.800415,410.7654724c-3.8691406,0.4512939-4.2349854,0.8171387-4.6862793,4.6863098
			c-0.4512939-3.8691711-0.8171387-4.2350159-4.6862793-4.6863098c3.8691406-0.4512634,4.2349854-0.8171082,4.6862793-4.6862793
			C1874.5654297,409.9483643,1874.9312744,410.314209,1878.800415,410.7654724z"/>
		<path fill="#FFFFFF" d="M1796.1851807,374.5428162c-3.0800781,0.3592529-3.3712158,0.6504822-3.7304688,3.7304688
			c-0.3592529-3.0799866-0.6505127-3.3712158-3.7304688-3.7304688c3.0799561-0.3592529,3.3712158-0.6504822,3.7304688-3.7304688
			C1792.8139648,373.892334,1793.1051025,374.1835632,1796.1851807,374.5428162z"/>
		<path fill="#FFFFFF" d="M1646.4550781,374.5428162c-3.8691406,0.4512939-4.2349854,0.8171387-4.6862793,4.6862793
			c-0.4512939-3.8691406-0.8171387-4.2349854-4.6862793-4.6862793c3.8691406-0.4512939,4.2349854-0.8171387,4.6862793-4.6862793
			C1642.2200928,373.7256775,1642.5859375,374.0915222,1646.4550781,374.5428162z"/>
		<path fill="#FFFFFF" d="M1714.9899902,382.2971497c-3.8691406,0.4512939-4.2349854,0.8171387-4.6862793,4.6862793
			c-0.4512939-3.8691406-0.8171387-4.2349854-4.6862793-4.6862793c3.8691406-0.4512939,4.2349854-0.8171387,4.6862793-4.6863098
			C1710.7550049,381.480011,1711.1208496,381.8458557,1714.9899902,382.2971497z"/>
		<path fill="#FFFFFF" d="M1878.800415,410.7654724c-3.8691406,0.4512939-4.2349854,0.8171387-4.6862793,4.6863098
			c-0.4512939-3.8691711-0.8171387-4.2350159-4.6862793-4.6863098c3.8691406-0.4512634,4.2349854-0.8171082,4.6862793-4.6862793
			C1874.5654297,409.9483643,1874.9312744,410.314209,1878.800415,410.7654724z"/>
		<path fill="#FFFFFF" d="M963.3823242,333.1021423c-3.8691406,0.4512939-4.2349854,0.8171387-4.6862793,4.6862793
			c-0.4512939-3.8691406-0.8171387-4.2349854-4.6862793-4.6862793c3.8691406-0.4512939,4.2349854-0.8171387,4.6862793-4.6862793
			C959.1473389,332.2850037,959.5131836,332.6508484,963.3823242,333.1021423z"/>
		<path fill="#FFFFFF" d="M757.3047485,435.0979614c-3.8692017,0.4512939-4.2350464,0.8171387-4.6863403,4.6862793
			c-0.4512939-3.8691406-0.8171387-4.2349854-4.6862793-4.6862793c3.8691406-0.4512939,4.2349854-0.8171387,4.6862793-4.6862793
			C753.0697021,434.2808228,753.4355469,434.6466675,757.3047485,435.0979614z"/>
		<path fill="#FFFFFF" d="M963.3823242,333.1021423c-3.8691406,0.4512939-4.2349854,0.8171387-4.6862793,4.6862793
			c-0.4512939-3.8691406-0.8171387-4.2349854-4.6862793-4.6862793c3.8691406-0.4512939,4.2349854-0.8171387,4.6862793-4.6862793
			C959.1473389,332.2850037,959.5131836,332.6508484,963.3823242,333.1021423z"/>
		<path fill="#FFFFFF" d="M757.3047485,435.0979614c-3.8692017,0.4512939-4.2350464,0.8171387-4.6863403,4.6862793
			c-0.4512939-3.8691406-0.8171387-4.2349854-4.6862793-4.6862793c3.8691406-0.4512939,4.2349854-0.8171387,4.6862793-4.6862793
			C753.0697021,434.2808228,753.4355469,434.6466675,757.3047485,435.0979614z"/>
		<path fill="#FFFFFF" d="M654.0562744,81.1867523c-7.7383423,0.9025803-8.4700317,1.6342697-9.3726196,9.3725739
			c-0.9025879-7.7383041-1.6342773-8.4699936-9.3725586-9.3725739c7.7382812-0.9025879,8.4699707-1.6342773,9.3725586-9.3725739
			C645.5862427,79.552475,646.3179321,80.2841644,654.0562744,81.1867523z"/>
		<path fill="#FFFFFF" d="M654.0562744,81.1867523c-7.7383423,0.9025803-8.4700317,1.6342697-9.3726196,9.3725739
			c-0.9025879-7.7383041-1.6342773-8.4699936-9.3725586-9.3725739c7.7382812-0.9025879,8.4699707-1.6342773,9.3725586-9.3725739
			C645.5862427,79.552475,646.3179321,80.2841644,654.0562744,81.1867523z"/>
		<path fill="#FFFFFF" d="M1469.9248047,232.7923279c-7.7382812,0.9025879-8.4699707,1.6342773-9.3725586,9.3725891
			c-0.9025879-7.7383118-1.6342773-8.4700012-9.3725586-9.3725891c7.7382812-0.9025726,8.4699707-1.6342621,9.3725586-9.3725739
			C1461.454834,231.1580658,1462.1865234,231.8897552,1469.9248047,232.7923279z"/>
		<path fill="#FFFFFF" d="M1469.9248047,232.7923279c-7.7382812,0.9025879-8.4699707,1.6342773-9.3725586,9.3725891
			c-0.9025879-7.7383118-1.6342773-8.4700012-9.3725586-9.3725891c7.7382812-0.9025726,8.4699707-1.6342621,9.3725586-9.3725739
			C1461.454834,231.1580658,1462.1865234,231.8897552,1469.9248047,232.7923279z"/>
		<path fill="#FFFFFF" d="M1373.4401855,43.9684792c-7.7384033,0.9025841-8.4700928,1.6342735-9.3725586,9.3725777
			c-0.9025879-7.7383041-1.6342773-8.4699936-9.3726807-9.3725777c7.7384033-0.9025841,8.4700928-1.6342697,9.3726807-9.3725739
			C1364.9700928,42.3342094,1365.7017822,43.0658951,1373.4401855,43.9684792z"/>
		<path fill="#FFFFFF" d="M1506.083374,53.3410606c-7.7384033,0.9025841-8.4700928,1.6342735-9.3725586,9.3725777
			c-0.9025879-7.7383041-1.6342773-8.4699936-9.3726807-9.3725777c7.7384033-0.9025841,8.4700928-1.6342697,9.3726807-9.3725739
			C1497.6132812,51.7067909,1498.3449707,52.4384766,1506.083374,53.3410606z"/>
		<path fill="#FFFFFF" d="M1749.7426758,167.5509033c-3.0799561,0.3592529-3.3712158,0.6504669-3.7304688,3.7304688
			c-0.3592529-3.0800018-0.6505127-3.3712158-3.7304688-3.7304688c3.0799561-0.3592377,3.3712158-0.6504669,3.7304688-3.7304535
			C1746.37146,166.9004364,1746.6627197,167.1916656,1749.7426758,167.5509033z"/>
		<path fill="#FFFFFF" d="M1600.0126953,167.5509033c-3.8691406,0.4512939-4.2349854,0.8171387-4.6862793,4.6862946
			c-0.4512939-3.8691559-0.8171387-4.2350006-4.6862793-4.6862946c3.8691406-0.4512939,4.2349854-0.8171387,4.6862793-4.6862793
			C1595.77771,166.7337646,1596.1435547,167.0996094,1600.0126953,167.5509033z"/>
		<path fill="#FFFFFF" d="M1632.2346191,102.5360641c-3.8691406,0.4512863-4.2349854,0.817131-4.6862793,4.6862869
			c-0.4512939-3.8691559-0.8171387-4.2350006-4.6862793-4.6862869c3.8691406-0.4512939,4.2349854-0.8171387,4.6862793-4.6862869
			C1627.9996338,101.7189255,1628.3654785,102.0847702,1632.2346191,102.5360641z"/>
		<path fill="#FFFFFF" d="M1832.3580322,203.7735748c-3.8692627,0.4512939-4.2351074,0.8171387-4.6862793,4.6862946
			c-0.4512939-3.8691559-0.8171387-4.2350006-4.6864014-4.6862946c3.8692627-0.4512939,4.2351074-0.8171387,4.6864014-4.6862946
			C1828.1229248,202.9564362,1828.4887695,203.3222809,1832.3580322,203.7735748z"/>
		<path fill="#FFFFFF" d="M1749.7426758,167.5509033c-3.0799561,0.3592529-3.3712158,0.6504669-3.7304688,3.7304688
			c-0.3592529-3.0800018-0.6505127-3.3712158-3.7304688-3.7304688c3.0799561-0.3592377,3.3712158-0.6504669,3.7304688-3.7304535
			C1746.37146,166.9004364,1746.6627197,167.1916656,1749.7426758,167.5509033z"/>
		<path fill="#FFFFFF" d="M1600.0126953,167.5509033c-3.8691406,0.4512939-4.2349854,0.8171387-4.6862793,4.6862946
			c-0.4512939-3.8691559-0.8171387-4.2350006-4.6862793-4.6862946c3.8691406-0.4512939,4.2349854-0.8171387,4.6862793-4.6862793
			C1595.77771,166.7337646,1596.1435547,167.0996094,1600.0126953,167.5509033z"/>
		<path fill="#FFFFFF" d="M1632.2346191,102.5360641c-3.8691406,0.4512863-4.2349854,0.817131-4.6862793,4.6862869
			c-0.4512939-3.8691559-0.8171387-4.2350006-4.6862793-4.6862869c3.8691406-0.4512939,4.2349854-0.8171387,4.6862793-4.6862869
			C1627.9996338,101.7189255,1628.3654785,102.0847702,1632.2346191,102.5360641z"/>
		<path fill="#FFFFFF" d="M1832.3580322,203.7735748c-3.8692627,0.4512939-4.2351074,0.8171387-4.6862793,4.6862946
			c-0.4512939-3.8691559-0.8171387-4.2350006-4.6864014-4.6862946c3.8692627-0.4512939,4.2351074-0.8171387,4.6864014-4.6862946
			C1828.1229248,202.9564362,1828.4887695,203.3222809,1832.3580322,203.7735748z"/>
		<path fill="#FFFFFF" d="M880.6268921,53.3410683c-3.8691406,0.4512901-4.2349854,0.8171349-4.6862793,4.6862869
			c-0.4512939-3.8691521-0.8171387-4.2349968-4.6862793-4.6862869c3.8691406-0.4512939,4.2349854-0.8171349,4.6862793-4.6862869
			C876.3919067,52.5239334,876.7577515,52.8897743,880.6268921,53.3410683z"/>
		<path fill="#FFFFFF" d="M674.5493164,155.3368835c-3.8692017,0.4512939-4.2350464,0.8171234-4.6863403,4.6862793
			c-0.4512939-3.8691559-0.8171387-4.2349854-4.6862793-4.6862793c3.8691406-0.4512939,4.2349854-0.8171387,4.6862793-4.6862946
			C670.31427,154.5197449,670.6801147,154.8855896,674.5493164,155.3368835z"/>
		<path fill="#FFFFFF" d="M880.6268921,53.3410683c-3.8691406,0.4512901-4.2349854,0.8171349-4.6862793,4.6862869
			c-0.4512939-3.8691521-0.8171387-4.2349968-4.6862793-4.6862869c3.8691406-0.4512939,4.2349854-0.8171349,4.6862793-4.6862869
			C876.3919067,52.5239334,876.7577515,52.8897743,880.6268921,53.3410683z"/>
		<path fill="#FFFFFF" d="M674.5493164,155.3368835c-3.8692017,0.4512939-4.2350464,0.8171234-4.6863403,4.6862793
			c-0.4512939-3.8691559-0.8171387-4.2349854-4.6862793-4.6862793c3.8691406-0.4512939,4.2349854-0.8171387,4.6862793-4.6862946
			C670.31427,154.5197449,670.6801147,154.8855896,674.5493164,155.3368835z"/>
		<path fill="#FFFFFF" d="M18.7451515,46.590847c-7.7383032,0.9025841-8.4699917,1.6342735-9.3725758,9.3725739
			C8.4699917,48.2251205,7.7383027,47.4934311,0,46.590847c7.7383027-0.9025841,8.4699917-1.6342735,9.3725758-9.3725777
			C10.2751598,44.9565735,11.0068483,45.6882629,18.7451515,46.590847z"/>
		<path fill="#FFFFFF" d="M18.7451515,46.590847c-7.7383032,0.9025841-8.4699917,1.6342735-9.3725758,9.3725739
			C8.4699917,48.2251205,7.7383027,47.4934311,0,46.590847c7.7383027-0.9025841,8.4699917-1.6342735,9.3725758-9.3725777
			C10.2751598,44.9565735,11.0068483,45.6882629,18.7451515,46.590847z"/>
		<path fill="#FFFFFF" d="M738.1290283,9.3725758c-7.7382812,0.9025841-8.4699707,1.6342726-9.3725586,9.3725758
			c-0.9025879-7.7383032-1.6342773-8.4699917-9.3725586-9.3725758C727.1221924,8.4699917,727.8538818,7.7383027,728.7564697,0
			C729.6590576,7.7383027,730.3907471,8.4699917,738.1290283,9.3725758z"/>
		<path fill="#FFFFFF" d="M245.3157806,18.745163c-3.8691559,0.451292-4.2349854,0.8171368-4.6862793,4.6862869
			c-0.4512939-3.8691502-0.8171387-4.2349949-4.6862946-4.6862869c3.8691559-0.451292,4.2350006-0.8171368,4.6862946-4.6862879
			C241.0807953,17.9280262,241.4466248,18.2938709,245.3157806,18.745163z"/>
		<path fill="#FFFFFF" d="M39.2381897,120.7409744c-3.8691521,0.4512939-4.234993,0.817131-4.6862869,4.6862869
			c-0.4512901-3.8691559-0.8171349-4.234993-4.6862869-4.6862869c3.8691521-0.4512939,4.2349968-0.8171387,4.6862869-4.6862869
			C35.0031967,119.9238358,35.3690376,120.2896805,39.2381897,120.7409744z"/>
		<path fill="#FFFFFF" d="M245.3157806,18.745163c-3.8691559,0.451292-4.2349854,0.8171368-4.6862793,4.6862869
			c-0.4512939-3.8691502-0.8171387-4.2349949-4.6862946-4.6862869c3.8691559-0.451292,4.2350006-0.8171368,4.6862946-4.6862879
			C241.0807953,17.9280262,241.4466248,18.2938709,245.3157806,18.745163z"/>
		<path fill="#FFFFFF" d="M39.2381897,120.7409744c-3.8691521,0.4512939-4.234993,0.817131-4.6862869,4.6862869
			c-0.4512901-3.8691559-0.8171349-4.234993-4.6862869-4.6862869c3.8691521-0.4512939,4.2349968-0.8171387,4.6862869-4.6862869
			C35.0031967,119.9238358,35.3690376,120.2896805,39.2381897,120.7409744z"/>
		<path fill="#FFFFFF" d="M30.4704685,352.8322144c-7.7383022,0.9025574-8.4699917,1.6342468-9.3725758,9.3725586
			c-0.9025841-7.7383118-1.6342716-8.4700012-9.3725748-9.3725586c7.7383032-0.9025879,8.4699907-1.6342773,9.3725748-9.3725891
			C22.0004768,351.197937,22.7321663,351.9296265,30.4704685,352.8322144z"/>
	</g>
</g>
<g id="clouds">
</g>
<g id="city">
</g>
<g id="fog">
</g>
<g id="building">
</g>
<g id="building-spots">
</g>
<g id="glow">
</g>
<g id="green-glow">
</g>
<g id="scratches">
</g>
<g id="claws">
</g>
<g id="Layer_14">
</g>
<g id="Layer_15">
</g>
<g id="shadow">
</g>
<g id="Layer_2">
</g>
<g id="glow_1_">
</g>
<g id="hairs">
</g>
<g id="logo">
</g>
<g id="color">
</g>
<g id="badge">
</g>
</svg>
